<svg width="53" height="53" viewBox="0 0 53 53" fill="none" xmlns="http://www.w3.org/2000/svg">
<g clip-path="url(#clip0_105_503)">
<path d="M26.5 53C41.1355 53 53 41.1355 53 26.5C53 11.8645 41.1355 0 26.5 0C11.8645 0 0 11.8645 0 26.5C0 41.1355 11.8645 53 26.5 53Z" fill="#0088CC"/>
<path fill-rule="evenodd" clip-rule="evenodd" d="M19.1264 17.513L33.9895 17.5129C34.5154 17.5129 35.0408 17.5902 35.5899 17.8462C36.2482 18.153 36.5972 18.6366 36.8418 18.9943C36.8608 19.0221 36.8786 19.0508 36.8951 19.0801C37.1826 19.592 37.3308 20.1446 37.3308 20.739C37.3308 21.3039 37.1964 21.9192 36.8951 22.4556C36.8922 22.4608 36.8893 22.4658 36.8864 22.4709L27.4961 38.6014C27.289 38.9571 26.9079 39.1753 26.4963 39.1739C26.0847 39.1724 25.7051 38.9514 25.5005 38.5943L16.2827 22.4983C16.2801 22.4939 16.2774 22.4895 16.2748 22.4851C16.0638 22.1375 15.7376 21.5999 15.6805 20.9062C15.6281 20.2682 15.7714 19.629 16.092 19.0747C16.4126 18.5204 16.8951 18.0773 17.4756 17.806C18.098 17.5152 18.7287 17.513 19.1264 17.513ZM25.3482 19.8173H19.1264C18.7177 19.8173 18.5608 19.8425 18.4511 19.8938C18.2994 19.9646 18.172 20.0811 18.0868 20.2283C18.0016 20.3757 17.9631 20.5464 17.9771 20.7174C17.9851 20.8153 18.0251 20.9274 18.2606 21.3159C18.2656 21.324 18.2704 21.3323 18.2751 21.3405L25.3482 33.6913V19.8173ZM27.6525 19.8173V33.7523L34.8894 21.3209C34.9711 21.1725 35.0264 20.958 35.0264 20.739C35.0264 20.5614 34.9896 20.4071 34.9073 20.2481C34.8209 20.1239 34.7683 20.0581 34.7242 20.013C34.6865 19.9745 34.6574 19.9539 34.6164 19.9348C34.4452 19.855 34.2701 19.8173 33.9895 19.8173H27.6525Z" fill="white"/>
</g>
<defs>
<clipPath id="clip0_105_503">
<rect width="53" height="53" fill="white"/>
</clipPath>
</defs>
</svg>
