<svg width="854" height="20" viewBox="0 0 854 20" fill="none" xmlns="http://www.w3.org/2000/svg">
<line x1="0.5" y1="8.5" x2="818.5" y2="8.50007" stroke="#0088CC" stroke-width="3" stroke-dasharray="7 6"/>
<path d="M829.064 5.46875H830.553L832.744 11.7324L834.936 5.46875H836.424L833.342 14H832.146L829.064 5.46875ZM828.262 5.46875H829.744L830.014 11.5742V14H828.262V5.46875ZM835.744 5.46875H837.232V14H835.475V11.5742L835.744 5.46875ZM842.108 6.92773L839.787 14H837.918L841.088 5.46875H842.278L842.108 6.92773ZM844.035 14L841.709 6.92773L841.522 5.46875H842.723L845.91 14H844.035ZM843.93 10.8242V12.2012H839.424V10.8242H843.93ZM847.909 5.46875L849.514 8.44531L851.12 5.46875H853.129L850.651 9.69922L853.194 14H851.166L849.514 10.9648L847.862 14H845.823L848.372 9.69922L845.887 5.46875H847.909Z" fill="black"/>
</svg>
