<svg width="32" height="33" viewBox="0 0 32 33" fill="none" xmlns="http://www.w3.org/2000/svg">
<g clip-path="url(#clip0_172_317)">
<path d="M15.0002 21.5001C14.8686 21.5008 14.7381 21.4756 14.6163 21.4258C14.4944 21.3761 14.3836 21.3027 14.2902 21.2101L10.2902 17.2101C10.1019 17.0218 9.99609 16.7664 9.99609 16.5001C9.99609 16.2338 10.1019 15.9784 10.2902 15.7901C10.4785 15.6018 10.7339 15.496 11.0002 15.496C11.2665 15.496 11.5219 15.6018 11.7102 15.7901L15.0002 19.0901L21.2902 12.7901C21.4785 12.6018 21.7339 12.496 22.0002 12.496C22.2665 12.496 22.5219 12.6018 22.7102 12.7901C22.8985 12.9784 23.0043 13.2338 23.0043 13.5001C23.0043 13.7664 22.8985 14.0218 22.7102 14.2101L15.7102 21.2101C15.6167 21.3027 15.5059 21.3761 15.3841 21.4258C15.2623 21.4756 15.1318 21.5008 15.0002 21.5001Z" fill="#00AC4F"/>
<path d="M16 29.5C13.4288 29.5 10.9154 28.7376 8.77759 27.3091C6.63975 25.8807 4.97351 23.8503 3.98957 21.4749C3.00563 19.0995 2.74819 16.4856 3.2498 13.9638C3.75141 11.4421 4.98953 9.1257 6.80762 7.30762C8.6257 5.48953 10.9421 4.25141 13.4638 3.7498C15.9856 3.24819 18.5995 3.50563 20.9749 4.48957C23.3503 5.47351 25.3807 7.13975 26.8091 9.27759C28.2376 11.4154 29 13.9288 29 16.5C29 19.9478 27.6304 23.2544 25.1924 25.6924C22.7544 28.1304 19.4478 29.5 16 29.5ZM16 5.50001C13.8244 5.50001 11.6977 6.14514 9.88873 7.35384C8.07979 8.56254 6.66989 10.2805 5.83733 12.2905C5.00477 14.3005 4.78693 16.5122 5.21137 18.646C5.63581 20.7798 6.68345 22.7398 8.22183 24.2782C9.76021 25.8166 11.7202 26.8642 13.854 27.2886C15.9878 27.7131 18.1995 27.4952 20.2095 26.6627C22.2195 25.8301 23.9375 24.4202 25.1462 22.6113C26.3549 20.8023 27 18.6756 27 16.5C27 13.5826 25.8411 10.7847 23.7782 8.72183C21.7153 6.65893 18.9174 5.50001 16 5.50001Z" fill="#00AC4F"/>
</g>
<defs>
<clipPath id="clip0_172_317">
<rect width="32" height="32" fill="white" transform="translate(0 0.5)"/>
</clipPath>
</defs>
</svg>
