<svg width="45" height="45" viewBox="0 0 45 45" fill="none" xmlns="http://www.w3.org/2000/svg">
<rect width="45" height="45" rx="7" fill="#F4F7FE"/>
<path fill-rule="evenodd" clip-rule="evenodd" d="M30.7671 13.3032C31.2806 13.3032 31.6971 13.7196 31.6971 14.2332V22.4999C31.6971 23.0135 31.2806 23.4299 30.7671 23.4299C30.2535 23.4299 29.8371 23.0135 29.8371 22.4999V16.4784L16.4789 29.8366H22.5004C23.014 29.8366 23.4304 30.253 23.4304 30.7666C23.4304 31.2801 23.014 31.6966 22.5004 31.6966H14.2337C13.9871 31.6966 13.7505 31.5986 13.5761 31.4242C13.4017 31.2498 13.3037 31.0131 13.3037 30.7666V22.4999C13.3037 21.9863 13.7201 21.5699 14.2337 21.5699C14.7473 21.5699 15.1637 21.9863 15.1637 22.4999V28.5213L28.5218 15.1632H22.5004C21.9867 15.1632 21.5704 14.7469 21.5704 14.2332C21.5704 13.7196 21.9867 13.3032 22.5004 13.3032H30.7671Z" fill="black"/>
</svg>
