<svg width="50" height="50" viewBox="0 0 50 50" fill="none" xmlns="http://www.w3.org/2000/svg">
<path d="M25 50C38.8071 50 50 38.8071 50 25C50 11.1929 38.8071 0 25 0C11.1929 0 0 11.1929 0 25C0 38.8071 11.1929 50 25 50Z" fill="#8C9EFF"/>
<path d="M36.3672 16.4746C36.3672 16.4746 33.1152 13.9258 29.2676 13.6328L28.9258 14.3262C32.4023 15.1758 33.9941 16.3965 35.6641 17.8906C32.793 16.4258 29.9512 15.0488 25.0098 15.0488C20.0684 15.0488 17.2266 16.4258 14.3555 17.8906C16.0254 16.3965 17.9199 15.0391 21.0938 14.3262L20.752 13.6328C16.7188 14.0137 13.6523 16.4746 13.6523 16.4746C13.6523 16.4746 10.0195 21.748 9.39453 32.0996C13.0566 36.3281 18.623 36.3574 18.623 36.3574L19.7852 34.8047C17.8125 34.1211 15.5762 32.8906 13.6523 30.6738C15.9473 32.4121 19.4238 34.2285 25.0195 34.2285C30.6152 34.2285 34.082 32.4219 36.3867 30.6738C34.4629 32.8906 32.2266 34.1211 30.2539 34.8047L31.416 36.3574C31.416 36.3574 36.9824 36.3281 40.6445 32.0996C40 21.748 36.3672 16.4746 36.3672 16.4746ZM20.3809 29.2578C19.0039 29.2578 17.8906 27.9883 17.8906 26.416C17.8906 24.8438 19.0039 23.5742 20.3809 23.5742C21.7578 23.5742 22.8711 24.8438 22.8711 26.416C22.8711 27.9883 21.7578 29.2578 20.3809 29.2578ZM29.6191 29.2578C28.2422 29.2578 27.1289 27.9883 27.1289 26.416C27.1289 24.8438 28.2422 23.5742 29.6191 23.5742C30.9961 23.5742 32.1094 24.8438 32.1094 26.416C32.1094 27.9883 30.9863 29.2578 29.6191 29.2578Z" fill="white"/>
</svg>
