<svg width="50" height="50" viewBox="0 0 50 50" fill="none" xmlns="http://www.w3.org/2000/svg">
<path d="M25 50C38.8071 50 50 38.8071 50 25C50 11.1929 38.8071 0 25 0C11.1929 0 0 11.1929 0 25C0 38.8071 11.1929 50 25 50Z" fill="#FF4500"/>
<path d="M41.6663 24.9999C41.6663 23.1583 40.1747 21.6666 38.333 21.6666C37.1247 21.6666 36.0664 22.3082 35.483 23.2749C33.0681 21.4036 29.6566 20.1905 25.8391 20.0318L27.3402 11.027L33.1312 12.4747C33.1997 12.4921 33.2669 12.4845 33.3346 12.4843C33.3345 12.4896 33.333 12.4945 33.333 12.4999C33.333 13.8807 34.4523 14.9999 35.833 14.9999C37.2137 14.9999 38.333 13.8807 38.333 12.4999C38.333 11.1192 37.2137 9.99994 35.833 9.99994C35.0148 9.99994 34.2951 10.3987 33.839 11.0064C33.7511 10.9389 33.6492 10.887 33.5348 10.8585L26.8682 9.19183C26.6419 9.13324 26.4043 9.17474 26.2098 9.30332C26.0153 9.43028 25.8826 9.63373 25.8444 9.86322L24.1777 19.8632C24.1681 19.9207 24.1812 19.9748 24.1835 20.0309C20.3566 20.1856 16.9361 21.3998 14.5163 23.2749C13.933 22.3082 12.8747 21.6666 11.6663 21.6666C9.82466 21.6666 8.33301 23.1583 8.33301 24.9999C8.33301 26.6332 9.49969 27.9832 11.0497 28.2749C10.908 28.8333 10.833 29.4083 10.833 29.9999C10.833 35.5249 17.1747 39.9999 24.9997 39.9999C32.8247 39.9999 39.1663 35.5249 39.1663 29.9999C39.1663 29.4083 39.0913 28.8333 38.9497 28.2749C40.4997 27.9832 41.6663 26.6332 41.6663 24.9999ZM16.6663 27.4999C16.6663 26.1192 17.7856 24.9999 19.1663 24.9999C20.5471 24.9999 21.6663 26.1192 21.6663 27.4999C21.6663 28.8807 20.5471 29.9999 19.1663 29.9999C17.7856 29.9999 16.6663 28.8807 16.6663 27.4999ZM31.3473 34.5808C29.6302 35.926 27.376 36.6666 24.9997 36.6666C22.6234 36.6666 20.3691 35.926 18.652 34.5808C18.2899 34.2968 18.2264 33.7735 18.5104 33.4106C18.7944 33.0493 19.3177 32.9841 19.6807 33.269C21.1048 34.3855 22.9945 34.9999 24.9997 34.9999C27.0049 34.9999 28.8945 34.3855 30.3187 33.269C30.6816 32.9841 31.2049 33.0493 31.4889 33.4106C31.7729 33.7735 31.7095 34.2968 31.3473 34.5808ZM30.833 29.9999C29.4523 29.9999 28.333 28.8807 28.333 27.4999C28.333 26.1192 29.4523 24.9999 30.833 24.9999C32.2137 24.9999 33.333 26.1192 33.333 27.4999C33.333 28.8807 32.2137 29.9999 30.833 29.9999Z" fill="white"/>
</svg>
