<svg width="50" height="50" viewBox="0 0 50 50" fill="none" xmlns="http://www.w3.org/2000/svg">
<path d="M25 0C11.1929 0 0 11.1929 0 25C0 38.8071 11.1929 50 25 50C38.8071 50 50 38.8071 50 25C50 11.1929 38.8071 0 25 0Z" fill="url(#paint0_linear_1030_295444)"/>
<path d="M38.4501 18.3136C37.5221 18.3136 36.6031 18.1309 35.7457 17.7757C34.8883 17.4206 34.1093 16.9001 33.4531 16.2438C32.7968 15.5876 32.2763 14.8086 31.9211 13.9512C31.566 13.0938 31.3832 12.1749 31.3832 11.2468H26.3344V31.0171C26.3334 31.9185 26.0488 32.7967 25.5208 33.5273C24.9929 34.2579 24.2484 34.8037 23.3929 35.0875C22.5373 35.3714 21.6142 35.3787 20.7543 35.1085C19.8943 34.8384 19.1412 34.3044 18.6017 33.5824C18.0622 32.8603 17.7636 31.9867 17.7483 31.0855C17.733 30.1843 18.0017 29.3011 18.5164 28.5611C19.031 27.8211 19.7656 27.2619 20.6158 26.9627C21.4661 26.6634 22.3889 26.6394 23.2536 26.894V21.9862C21.416 21.7384 19.5466 22.0571 17.8949 22.8998C16.2432 23.7424 14.8879 25.0689 14.01 26.7021C13.132 28.3353 12.7732 30.1975 12.9815 32.04C13.1898 33.8825 13.9552 35.6176 15.1755 37.0136C16.3958 38.4097 18.013 39.4002 19.8111 39.8529C21.6093 40.3056 23.5027 40.199 25.2386 39.5473C26.9745 38.8956 28.4703 37.7298 29.5262 36.2056C30.5821 34.6814 31.1479 32.8714 31.1481 31.0171L31.2945 21.0238C33.369 22.5467 35.8761 23.3661 38.4495 23.3623L38.4501 18.3136Z" fill="url(#paint1_linear_1030_295444)"/>
<path d="M37.1158 16.9382C35.2416 16.9382 33.4442 16.1936 32.1189 14.8683C30.7937 13.543 30.0492 11.7456 30.0492 9.87134H25.0004V29.6417C24.9995 30.543 24.7148 31.4212 24.1869 32.1518C23.659 32.8824 22.9145 33.4283 22.0589 33.7121C21.2034 33.9959 20.2803 34.0033 19.4203 33.7332C18.5604 33.463 17.8073 32.9291 17.2677 32.207C16.7282 31.485 16.4296 30.6114 16.4143 29.7102C16.399 28.8089 16.6677 27.9257 17.1824 27.1857C17.697 26.4457 18.4316 25.8865 19.2818 25.5873C20.1321 25.288 21.055 25.264 21.9196 25.5186V20.6107C20.082 20.3629 18.2126 20.6816 16.5609 21.5243C14.9092 22.3669 13.5539 23.6934 12.676 25.3267C11.798 26.9599 11.4392 28.822 11.6475 30.6645C11.8558 32.507 12.6212 34.2421 13.8415 35.6381C15.0619 37.0342 16.6791 38.0247 18.4772 38.4774C20.2753 38.9301 22.1687 38.8235 23.9046 38.1718C25.6405 37.5201 27.1363 36.3543 28.1922 34.8301C29.2482 33.3059 29.814 31.4959 29.8141 29.6417L29.9613 19.6484C32.0358 21.1712 34.5429 21.9906 37.1163 21.9868L37.1158 16.9382Z" fill="url(#paint2_linear_1030_295444)"/>
<path d="M37.115 18.1873C35.3682 17.8511 33.8123 16.8686 32.7581 15.4357C31.4256 14.3929 30.5117 12.9065 30.1824 11.2468H26.3343V31.0171C26.3342 31.9554 26.0271 32.8679 25.4598 33.6154C24.8926 34.3628 24.0963 34.904 23.1926 35.1565C22.2889 35.409 21.3275 35.3589 20.4549 35.0138C19.5824 34.6687 18.8468 34.0475 18.3603 33.2452C17.4953 32.6821 16.8617 31.8266 16.5754 30.835C16.2891 29.8433 16.3691 28.7818 16.8009 27.8443C17.2327 26.9068 17.9873 26.1559 18.927 25.7289C19.8667 25.302 20.9287 25.2273 21.9188 25.5187V21.9071C20.2205 21.9289 18.562 22.4251 17.1307 23.3396C15.6993 24.2541 14.5521 25.5504 13.8185 27.0823C13.0849 28.6142 12.7941 30.3207 12.9789 32.0092C13.1638 33.6976 13.8169 35.3007 14.8645 36.6376C16.1946 37.7475 17.8134 38.4551 19.5314 38.6777C21.2493 38.9002 22.995 38.6285 24.564 37.8942C26.1329 37.1599 27.46 35.9936 28.3898 34.532C29.3195 33.0704 29.8133 31.374 29.8133 29.6417L29.9605 19.6485C32.035 21.1713 34.5421 21.9907 37.1155 21.9869L37.115 18.1873Z" fill="url(#paint3_linear_1030_295444)"/>
<defs>
<linearGradient id="paint0_linear_1030_295444" x1="-0.131543" y1="50.1315" x2="49.8729" y2="0.127051" gradientUnits="userSpaceOnUse">
<stop stop-color="#111111"/>
<stop offset="1" stop-color="#323232"/>
</linearGradient>
<linearGradient id="paint1_linear_1030_295444" x1="14.9473" y1="36.8132" x2="35.9484" y2="15.812" gradientUnits="userSpaceOnUse">
<stop stop-color="#B5053C"/>
<stop offset="0.233" stop-color="#C90441"/>
<stop offset="0.737" stop-color="#F0014B"/>
<stop offset="1" stop-color="#FF004F"/>
</linearGradient>
<linearGradient id="paint2_linear_1030_295444" x1="13.3004" y1="35.7503" x2="35.4225" y2="13.6284" gradientUnits="userSpaceOnUse">
<stop stop-color="#00B2C9"/>
<stop offset="0.283" stop-color="#00C8D4"/>
<stop offset="0.741" stop-color="#00E6E4"/>
<stop offset="1" stop-color="#00F1EA"/>
</linearGradient>
<linearGradient id="paint3_linear_1030_295444" x1="0.905742" y1="49.4994" x2="49.873" y2="0.532081" gradientUnits="userSpaceOnUse">
<stop stop-color="#DDE3E4"/>
<stop offset="1" stop-color="#FCF7F7"/>
</linearGradient>
</defs>
</svg>
