<svg width="50" height="50" viewBox="0 0 50 50" fill="none" xmlns="http://www.w3.org/2000/svg">
<path d="M25 50C11.195 50 0 38.805 0 25C0 11.195 11.195 0 25 0C38.805 0 50 11.195 50 25C50 38.805 38.805 50 25 50Z" fill="#FF0000"/>
<path d="M40.9104 16.955C40.5304 15.515 39.4054 14.385 37.9754 14C35.3854 13.3 25.0054 13.3 25.0054 13.3C25.0054 13.3 14.6204 13.3 12.0354 14C10.6054 14.385 9.48039 15.515 9.10039 16.955C8.40039 19.56 8.40039 25 8.40039 25C8.40039 25 8.40039 30.4401 9.09539 33.0451C9.47539 34.4851 10.6004 35.615 12.0304 36C14.6204 36.7 25.0004 36.7 25.0004 36.7C25.0004 36.7 35.3854 36.7 37.9704 36C39.4004 35.615 40.5254 34.4851 40.9054 33.0451C41.6004 30.4401 41.6004 25 41.6004 25C41.6004 25 41.6004 19.56 40.9104 16.955ZM21.6054 29.935V20.065L30.2804 25L21.6054 29.935Z" fill="white"/>
</svg>
