<svg width="280" height="241" viewBox="0 0 280 241" fill="none" xmlns="http://www.w3.org/2000/svg">
<g clip-path="url(#clip0_103_633)">
<path d="M199.011 240.173C197.002 240.171 195.026 239.662 193.266 238.691L29.8373 149.065C27.0462 147.531 24.9762 144.948 24.0814 141.885C23.1866 138.822 23.5401 135.527 25.0643 132.725L94.0323 6.26839C94.7889 4.88119 95.8105 3.657 97.0388 2.66573C98.2672 1.67445 99.6782 0.935496 101.191 0.491057C102.705 0.0466186 104.29 -0.0946 105.858 0.0754644C107.425 0.245529 108.944 0.723546 110.327 1.48222L273.756 91.108C276.548 92.6428 278.618 95.2251 279.512 98.2884C280.407 101.352 280.054 104.646 278.529 107.448L209.561 233.905C208.808 235.295 207.788 236.521 206.559 237.513C205.33 238.504 203.917 239.242 202.402 239.682C201.301 240.007 200.159 240.172 199.011 240.173ZM194.254 236.88C196.569 238.15 199.292 238.445 201.824 237.701C204.356 236.958 206.49 235.236 207.756 232.915L276.724 106.458C277.987 104.136 278.279 101.406 277.538 98.8682C276.797 96.3301 275.081 94.1904 272.769 92.9187L109.34 3.29288C107.025 2.02345 104.302 1.72812 101.77 2.47185C99.2379 3.21558 97.1042 4.93745 95.8382 7.2587L26.8701 133.716C25.6072 136.037 25.3143 138.767 26.0557 141.305C26.7971 143.843 28.5123 145.983 30.8249 147.255L194.254 236.88Z" fill="#3F3D56" fill-opacity="0.21"/>
<path d="M202.381 195.946C200.5 195.945 198.65 195.47 197.001 194.565L64.8734 122.105C63.5879 121.401 62.4533 120.451 61.5346 119.307C60.6159 118.163 59.9311 116.849 59.5194 115.44C59.1078 114.031 58.9773 112.554 59.1355 111.094C59.2937 109.634 59.7374 108.22 60.4413 106.932L101.631 31.4078C102.334 30.1196 103.282 28.9828 104.423 28.0622C105.563 27.1417 106.874 26.4555 108.279 26.0428C109.684 25.6301 111.156 25.499 112.612 25.6569C114.068 25.8149 115.478 26.2589 116.762 26.9635L248.89 99.4232C250.175 100.128 251.308 101.079 252.226 102.223C253.144 103.366 253.829 104.68 254.24 106.089C254.652 107.498 254.782 108.975 254.625 110.434C254.467 111.894 254.025 113.308 253.322 114.596L253.172 114.514L253.322 114.596L212.132 190.12C211.18 191.881 209.771 193.352 208.055 194.377C206.339 195.403 204.379 195.945 202.381 195.946Z" fill="#3F3D56" fill-opacity="0.21"/>
<path d="M198.279 240.14H12.0063C9.0505 240.137 6.21667 238.958 4.12657 236.862C2.03646 234.766 0.860774 231.924 0.857422 228.96V84.8275C0.860774 81.8634 2.03646 79.0218 4.12657 76.9259C6.21667 74.83 9.0505 73.6511 12.0063 73.6477H198.279C201.235 73.6511 204.069 74.83 206.159 76.9259C208.249 79.0218 209.425 81.8634 209.428 84.8275V228.96C209.425 231.924 208.249 234.766 206.159 236.862C204.069 238.958 201.235 240.137 198.279 240.14Z" fill="white"/>
<path d="M198.279 241H12.0065C8.8233 240.997 5.77148 239.727 3.52059 237.47C1.26971 235.213 0.00358372 232.152 0 228.96V84.8276C0.00358372 81.6355 1.26971 78.5753 3.52059 76.3182C5.77148 74.0611 8.8233 72.7914 12.0065 72.7878H198.279C201.463 72.7914 204.514 74.0611 206.765 76.3182C209.016 78.5753 210.282 81.6355 210.286 84.8276V228.96C210.282 232.152 209.016 235.213 206.765 237.47C204.514 239.727 201.463 240.997 198.279 241ZM12.0065 74.8518C9.369 74.8548 6.84035 75.9068 4.97533 77.7769C3.11031 79.6471 2.06124 82.1827 2.05826 84.8276V228.96C2.06124 231.605 3.11031 234.141 4.97533 236.011C6.84035 237.881 9.369 238.933 12.0065 238.936H198.279C200.917 238.933 203.445 237.881 205.31 236.011C207.176 234.141 208.225 231.605 208.228 228.96V84.8276C208.225 82.1827 207.176 79.6471 205.31 77.7769C203.445 75.9068 200.917 74.8548 198.279 74.8518H12.0065Z" fill="#E6E6E6"/>
<path d="M134.131 121.046C131.967 121.044 129.832 121.546 127.895 122.512C125.957 123.478 124.27 124.882 122.965 126.613C121.564 126.009 120.036 125.763 118.518 125.897C116.999 126.031 115.537 126.542 114.263 127.382C112.99 128.223 111.945 129.367 111.221 130.713C110.497 132.058 110.119 133.563 110.118 135.092H148.139C148.139 133.247 147.777 131.421 147.073 129.717C146.369 128.013 145.337 126.464 144.036 125.16C142.736 123.855 141.191 122.821 139.492 122.115C137.792 121.409 135.971 121.046 134.131 121.046Z" fill="#E6E6E6"/>
<path d="M50.8379 176.027C63.2961 176.027 73.3955 165.9 73.3955 153.407C73.3955 140.914 63.2961 130.787 50.8379 130.787C38.3797 130.787 28.2803 140.914 28.2803 153.407C28.2803 165.9 38.3797 176.027 50.8379 176.027Z" fill="#5539A8"/>
<path d="M182.965 200.024C182.138 200.219 181.291 200.317 180.441 200.316H29.8445C27.9898 200.319 26.1647 199.849 24.541 198.95L24.9424 198.373L41.7446 174.111L66.6428 138.167L67.0064 137.641L70.9239 131.985C71.1872 131.605 71.5385 131.294 71.9477 131.079C72.3569 130.864 72.8119 130.752 73.2738 130.752C73.7357 130.752 74.1907 130.864 74.5999 131.079C75.0092 131.294 75.3604 131.605 75.6237 131.985L88.6387 150.771V150.774L96.2954 161.83L114.573 188.214L142.294 148.535C142.558 148.156 142.909 147.847 143.318 147.634C143.726 147.421 144.18 147.309 144.641 147.309C145.101 147.309 145.555 147.421 145.963 147.634C146.372 147.847 146.723 148.156 146.987 148.535L164.77 173.987L165.793 175.449L182.965 200.024Z" fill="#3F3D56"/>
<path d="M104.193 144.5C101.523 144.498 98.8893 145.117 96.4987 146.309C94.1081 147.501 92.026 149.233 90.4162 151.369C88.6884 150.624 86.803 150.32 84.9292 150.485C83.0555 150.651 81.252 151.28 79.6808 152.317C78.1096 153.354 76.8197 154.766 75.9271 156.427C75.0344 158.087 74.5669 159.944 74.5664 161.83H121.475C121.475 159.554 121.028 157.3 120.16 155.198C119.291 153.095 118.018 151.185 116.413 149.576C114.809 147.966 112.903 146.69 110.807 145.819C108.71 144.948 106.463 144.5 104.193 144.5Z" fill="#CCCCCC"/>
<path d="M180.441 200.66H29.8449C28.3579 200.661 26.8852 200.369 25.5111 199.799C24.1371 199.229 22.8886 198.393 21.8371 197.338C20.7856 196.284 19.9518 195.032 19.3834 193.654C18.815 192.276 18.5231 190.799 18.5244 189.308V103.228C18.5278 100.218 19.7216 97.3327 21.8438 95.2046C23.9661 93.0765 26.8435 91.8794 29.8449 91.876H180.441C183.442 91.8794 186.32 93.0765 188.442 95.2046C190.564 97.3327 191.758 100.218 191.762 103.228V189.308C191.763 190.8 191.472 192.276 190.903 193.654C190.335 195.032 189.501 196.285 188.45 197.339C187.398 198.393 186.149 199.23 184.775 199.799C183.401 200.369 181.928 200.662 180.441 200.66ZM29.8449 92.564C27.0254 92.5672 24.3224 93.6917 22.3288 95.6909C20.3351 97.69 19.2137 100.401 19.2105 103.228V189.308C19.2092 190.709 19.4834 192.096 20.0173 193.391C20.5513 194.685 21.3345 195.861 22.3223 196.852C23.31 197.842 24.4829 198.628 25.7737 199.163C27.0645 199.698 28.448 199.973 29.8449 199.972H180.441C181.838 199.974 183.222 199.699 184.513 199.164C185.804 198.628 186.977 197.843 187.964 196.852C188.952 195.862 189.735 194.686 190.269 193.391C190.803 192.097 191.077 190.709 191.075 189.308V103.228C191.072 100.401 189.951 97.69 187.957 95.6909C185.964 93.6917 183.26 92.5672 180.441 92.564H29.8449Z" fill="#3F3D56"/>
</g>
<defs>
<clipPath id="clip0_103_633">
<rect width="280" height="241" fill="white"/>
</clipPath>
</defs>
</svg>
