<svg width="1477" height="232" viewBox="0 0 1477 232" fill="none" xmlns="http://www.w3.org/2000/svg">
<path d="M86.7542 228.337C85.6555 228.337 84.8128 228.027 84.2262 227.409C83.6395 226.779 83.3462 225.915 83.3462 224.817H84.7062C84.7168 225.446 84.8822 225.985 85.2022 226.433C85.5222 226.87 86.0342 227.089 86.7382 227.089C87.4422 227.089 87.9435 226.875 88.2422 226.449C88.5515 226.022 88.7062 225.489 88.7062 224.849V216.945H90.0502V224.849C90.0502 225.969 89.7622 226.833 89.1862 227.441C88.6102 228.038 87.7995 228.337 86.7542 228.337ZM95.5479 228.337C94.9186 228.337 94.3959 228.225 93.9799 228.001C93.5639 227.777 93.2546 227.483 93.0519 227.121C92.8493 226.747 92.7479 226.342 92.7479 225.905C92.7479 225.094 93.0413 224.481 93.6279 224.065C94.2253 223.638 95.0199 223.425 96.0119 223.425H98.1879V223.265C98.1879 221.878 97.5533 221.185 96.2839 221.185C95.7719 221.185 95.3399 221.297 94.9879 221.521C94.6466 221.745 94.4279 222.097 94.3319 222.577H92.9559C93.0093 222.043 93.1853 221.585 93.4839 221.201C93.7933 220.817 94.1879 220.523 94.6679 220.321C95.1479 220.118 95.6866 220.017 96.2839 220.017C97.4146 220.017 98.2359 220.315 98.7479 220.913C99.2706 221.499 99.5319 222.283 99.5319 223.265V228.145H98.3799L98.2679 226.913H98.1559C97.9213 227.297 97.6066 227.633 97.2119 227.921C96.8279 228.198 96.2733 228.337 95.5479 228.337ZM95.7879 227.153C96.2999 227.153 96.7319 227.03 97.0839 226.785C97.4466 226.539 97.7186 226.214 97.8999 225.809C98.0919 225.403 98.1879 224.961 98.1879 224.481H96.1239C95.3986 224.481 94.8866 224.603 94.5879 224.849C94.2999 225.094 94.1559 225.419 94.1559 225.825C94.1559 226.241 94.2946 226.566 94.5719 226.801C94.8493 227.035 95.2546 227.153 95.7879 227.153ZM102.422 228.145V220.209H103.542L103.686 221.409H103.766C103.979 221.025 104.315 220.699 104.774 220.433C105.232 220.155 105.76 220.017 106.358 220.017C107.328 220.017 108.054 220.305 108.534 220.881C109.024 221.457 109.27 222.289 109.27 223.377V228.145H107.926V223.537C107.926 222.833 107.771 222.283 107.462 221.889C107.152 221.483 106.672 221.281 106.022 221.281C105.392 221.281 104.859 221.499 104.422 221.937C103.984 222.363 103.766 222.982 103.766 223.793V228.145H102.422Z" fill="black"/>
<path d="M310.282 228.145V216.945H317.274V218.193H311.626V222.097H316.458V223.297H311.626V228.145H310.282ZM323.3 228.337C322.553 228.337 321.892 228.166 321.316 227.825C320.751 227.473 320.303 226.987 319.972 226.369C319.641 225.739 319.476 225.009 319.476 224.177C319.476 223.345 319.636 222.619 319.956 222.001C320.287 221.371 320.74 220.886 321.316 220.545C321.892 220.193 322.564 220.017 323.332 220.017C324.1 220.017 324.756 220.193 325.3 220.545C325.844 220.886 326.26 221.339 326.548 221.905C326.836 222.47 326.98 223.078 326.98 223.729C326.98 223.846 326.975 223.963 326.964 224.081C326.964 224.198 326.964 224.331 326.964 224.481H320.804C320.836 225.067 320.969 225.558 321.204 225.953C321.449 226.337 321.753 226.625 322.116 226.817C322.489 227.009 322.884 227.105 323.3 227.105C323.887 227.105 324.345 226.982 324.676 226.737C325.007 226.491 325.257 226.15 325.428 225.713H326.756C326.575 226.449 326.196 227.073 325.62 227.585C325.044 228.086 324.271 228.337 323.3 228.337ZM323.3 221.217C322.681 221.217 322.137 221.403 321.668 221.777C321.209 222.15 320.927 222.673 320.82 223.345H325.652C325.609 222.683 325.369 222.166 324.932 221.793C324.505 221.409 323.961 221.217 323.3 221.217ZM333.086 228.337C332.478 228.337 331.96 228.214 331.534 227.969C331.118 227.713 330.808 227.366 330.606 226.929H330.51L330.366 228.145H329.262V216.625H330.606V221.345C330.808 220.993 331.123 220.683 331.55 220.417C331.987 220.15 332.499 220.017 333.086 220.017C333.768 220.017 334.371 220.177 334.894 220.497C335.416 220.817 335.827 221.286 336.126 221.905C336.424 222.523 336.574 223.275 336.574 224.161C336.574 225.057 336.424 225.819 336.126 226.449C335.827 227.067 335.411 227.537 334.878 227.857C334.355 228.177 333.758 228.337 333.086 228.337ZM332.91 227.057C333.582 227.057 334.131 226.822 334.558 226.353C334.995 225.873 335.214 225.147 335.214 224.177C335.214 223.206 334.995 222.486 334.558 222.017C334.131 221.537 333.582 221.297 332.91 221.297C332.238 221.297 331.683 221.537 331.246 222.017C330.808 222.486 330.59 223.206 330.59 224.177C330.59 225.147 330.808 225.873 331.246 226.353C331.683 226.822 332.238 227.057 332.91 227.057Z" fill="black"/>
<path d="M536.626 228.145V216.945H538.066L540.626 222.273L543.186 216.945H544.626V228.145H543.314V219.537L541.138 224.065H540.114L537.938 219.553V228.145H536.626ZM549.548 228.337C548.919 228.337 548.396 228.225 547.98 228.001C547.564 227.777 547.255 227.483 547.052 227.121C546.849 226.747 546.748 226.342 546.748 225.905C546.748 225.094 547.041 224.481 547.628 224.065C548.225 223.638 549.02 223.425 550.012 223.425H552.188V223.265C552.188 221.878 551.553 221.185 550.284 221.185C549.772 221.185 549.34 221.297 548.988 221.521C548.647 221.745 548.428 222.097 548.332 222.577H546.956C547.009 222.043 547.185 221.585 547.484 221.201C547.793 220.817 548.188 220.523 548.668 220.321C549.148 220.118 549.687 220.017 550.284 220.017C551.415 220.017 552.236 220.315 552.748 220.913C553.271 221.499 553.532 222.283 553.532 223.265V228.145H552.38L552.268 226.913H552.156C551.921 227.297 551.607 227.633 551.212 227.921C550.828 228.198 550.273 228.337 549.548 228.337ZM549.788 227.153C550.3 227.153 550.732 227.03 551.084 226.785C551.447 226.539 551.719 226.214 551.9 225.809C552.092 225.403 552.188 224.961 552.188 224.481H550.124C549.399 224.481 548.887 224.603 548.588 224.849C548.3 225.094 548.156 225.419 548.156 225.825C548.156 226.241 548.295 226.566 548.572 226.801C548.849 227.035 549.255 227.153 549.788 227.153ZM556.358 228.145V226.993H558.39V221.761C558.39 221.494 558.262 221.361 558.006 221.361H556.566V220.209H558.502C558.854 220.209 559.136 220.305 559.35 220.497C559.563 220.689 559.67 220.971 559.67 221.345V221.681H559.734C559.862 221.147 560.102 220.737 560.454 220.449C560.816 220.161 561.318 220.017 561.958 220.017H563.414V221.441H561.766C561.115 221.441 560.614 221.659 560.262 222.097C559.91 222.523 559.734 223.073 559.734 223.745V226.993H562.23V228.145H556.358Z" fill="black"/>
<path d="M763.354 228.145L766.858 216.945H768.41L771.898 228.145H770.426L769.61 225.361H765.642L764.826 228.145H763.354ZM767.594 218.833L765.978 224.241H769.274L767.658 218.833H767.594ZM773.668 231.665V220.209H774.756L774.916 221.521H775.012C775.215 221.094 775.54 220.737 775.988 220.449C776.436 220.161 776.964 220.017 777.572 220.017C778.212 220.017 778.788 220.177 779.3 220.497C779.823 220.817 780.233 221.291 780.532 221.921C780.831 222.539 780.98 223.297 780.98 224.193C780.98 225.078 780.825 225.83 780.516 226.449C780.217 227.067 779.801 227.537 779.268 227.857C778.745 228.177 778.143 228.337 777.46 228.337C776.852 228.337 776.335 228.209 775.908 227.953C775.492 227.686 775.193 227.377 775.012 227.025V231.665H773.668ZM777.3 227.057C777.972 227.057 778.527 226.822 778.964 226.353C779.401 225.873 779.62 225.147 779.62 224.177C779.62 223.206 779.401 222.486 778.964 222.017C778.527 221.537 777.972 221.297 777.3 221.297C776.628 221.297 776.073 221.537 775.636 222.017C775.199 222.486 774.98 223.206 774.98 224.177C774.98 225.147 775.199 225.873 775.636 226.353C776.073 226.822 776.628 227.057 777.3 227.057ZM783.358 228.145V226.993H785.39V221.761C785.39 221.494 785.262 221.361 785.006 221.361H783.566V220.209H785.502C785.854 220.209 786.136 220.305 786.35 220.497C786.563 220.689 786.67 220.971 786.67 221.345V221.681H786.734C786.862 221.147 787.102 220.737 787.454 220.449C787.816 220.161 788.318 220.017 788.958 220.017H790.414V221.441H788.766C788.115 221.441 787.614 221.659 787.262 222.097C786.91 222.523 786.734 223.073 786.734 223.745V226.993H789.23V228.145H783.358Z" fill="black"/>
<path d="M990.626 228.145V216.945H992.066L994.626 222.273L997.186 216.945H998.626V228.145H997.314V219.537L995.138 224.065H994.114L991.938 219.553V228.145H990.626ZM1003.55 228.337C1002.92 228.337 1002.4 228.225 1001.98 228.001C1001.56 227.777 1001.25 227.483 1001.05 227.121C1000.85 226.747 1000.75 226.342 1000.75 225.905C1000.75 225.094 1001.04 224.481 1001.63 224.065C1002.23 223.638 1003.02 223.425 1004.01 223.425H1006.19V223.265C1006.19 221.878 1005.55 221.185 1004.28 221.185C1003.77 221.185 1003.34 221.297 1002.99 221.521C1002.65 221.745 1002.43 222.097 1002.33 222.577H1000.96C1001.01 222.043 1001.19 221.585 1001.48 221.201C1001.79 220.817 1002.19 220.523 1002.67 220.321C1003.15 220.118 1003.69 220.017 1004.28 220.017C1005.41 220.017 1006.24 220.315 1006.75 220.913C1007.27 221.499 1007.53 222.283 1007.53 223.265V228.145H1006.38L1006.27 226.913H1006.16C1005.92 227.297 1005.61 227.633 1005.21 227.921C1004.83 228.198 1004.27 228.337 1003.55 228.337ZM1003.79 227.153C1004.3 227.153 1004.73 227.03 1005.08 226.785C1005.45 226.539 1005.72 226.214 1005.9 225.809C1006.09 225.403 1006.19 224.961 1006.19 224.481H1004.12C1003.4 224.481 1002.89 224.603 1002.59 224.849C1002.3 225.094 1002.16 225.419 1002.16 225.825C1002.16 226.241 1002.29 226.566 1002.57 226.801C1002.85 227.035 1003.25 227.153 1003.79 227.153ZM1011.4 231.665L1013.35 227.377H1012.89L1009.75 220.209H1011.21L1013.81 226.353L1016.57 220.209H1017.97L1012.81 231.665H1011.4Z" fill="black"/>
<path d="M1221.75 228.337C1220.66 228.337 1219.81 228.027 1219.23 227.409C1218.64 226.779 1218.35 225.915 1218.35 224.817H1219.71C1219.72 225.446 1219.88 225.985 1220.2 226.433C1220.52 226.87 1221.03 227.089 1221.74 227.089C1222.44 227.089 1222.94 226.875 1223.24 226.449C1223.55 226.022 1223.71 225.489 1223.71 224.849V216.945H1225.05V224.849C1225.05 225.969 1224.76 226.833 1224.19 227.441C1223.61 228.038 1222.8 228.337 1221.75 228.337ZM1230.66 228.337C1229.7 228.337 1228.97 228.049 1228.48 227.473C1227.99 226.897 1227.75 226.065 1227.75 224.977V220.209H1229.09V224.817C1229.09 225.521 1229.25 226.075 1229.56 226.481C1229.88 226.875 1230.36 227.073 1231 227.073C1231.64 227.073 1232.17 226.859 1232.61 226.433C1233.05 225.995 1233.27 225.371 1233.27 224.561V220.209H1234.61V228.145H1233.49L1233.35 226.945H1233.27C1233.05 227.329 1232.72 227.659 1232.26 227.937C1231.8 228.203 1231.27 228.337 1230.66 228.337ZM1237.42 228.145V220.209H1238.54L1238.69 221.409H1238.77C1238.98 221.025 1239.32 220.699 1239.77 220.433C1240.23 220.155 1240.76 220.017 1241.36 220.017C1242.33 220.017 1243.05 220.305 1243.53 220.881C1244.02 221.457 1244.27 222.289 1244.27 223.377V228.145H1242.93V223.537C1242.93 222.833 1242.77 222.283 1242.46 221.889C1242.15 221.483 1241.67 221.281 1241.02 221.281C1240.39 221.281 1239.86 221.499 1239.42 221.937C1238.98 222.363 1238.77 222.982 1238.77 223.793V228.145H1237.42Z" fill="black"/>
<path d="M1448.75 228.337C1447.66 228.337 1446.81 228.027 1446.23 227.409C1445.64 226.779 1445.35 225.915 1445.35 224.817H1446.71C1446.72 225.446 1446.88 225.985 1447.2 226.433C1447.52 226.87 1448.03 227.089 1448.74 227.089C1449.44 227.089 1449.94 226.875 1450.24 226.449C1450.55 226.022 1450.71 225.489 1450.71 224.849V216.945H1452.05V224.849C1452.05 225.969 1451.76 226.833 1451.19 227.441C1450.61 228.038 1449.8 228.337 1448.75 228.337ZM1457.66 228.337C1456.7 228.337 1455.97 228.049 1455.48 227.473C1454.99 226.897 1454.75 226.065 1454.75 224.977V220.209H1456.09V224.817C1456.09 225.521 1456.25 226.075 1456.56 226.481C1456.88 226.875 1457.36 227.073 1458 227.073C1458.64 227.073 1459.17 226.859 1459.61 226.433C1460.05 225.995 1460.27 225.371 1460.27 224.561V220.209H1461.61V228.145H1460.49L1460.35 226.945H1460.27C1460.05 227.329 1459.72 227.659 1459.26 227.937C1458.8 228.203 1458.27 228.337 1457.66 228.337ZM1464.42 228.145V220.209H1465.54L1465.69 221.409H1465.77C1465.98 221.025 1466.32 220.699 1466.77 220.433C1467.23 220.155 1467.76 220.017 1468.36 220.017C1469.33 220.017 1470.05 220.305 1470.53 220.881C1471.02 221.457 1471.27 222.289 1471.27 223.377V228.145H1469.93V223.537C1469.93 222.833 1469.77 222.283 1469.46 221.889C1469.15 221.483 1468.67 221.281 1468.02 221.281C1467.39 221.281 1466.86 221.499 1466.42 221.937C1465.98 222.363 1465.77 222.982 1465.77 223.793V228.145H1464.42Z" fill="black"/>
<path d="M27.5503 12V11.164C28.049 10.768 28.5257 10.3683 28.9803 9.965C29.435 9.56167 29.8383 9.16567 30.1903 8.777C30.5497 8.381 30.832 7.996 31.0373 7.622C31.2427 7.24067 31.3453 6.874 31.3453 6.522C31.3453 6.28733 31.305 6.06733 31.2243 5.862C31.1437 5.64933 31.0117 5.48067 30.8283 5.356C30.645 5.224 30.3993 5.158 30.0913 5.158C29.6293 5.158 29.281 5.30467 29.0463 5.598C28.819 5.89133 28.709 6.24333 28.7163 6.654H27.5833C27.5907 6.11133 27.7043 5.65667 27.9243 5.29C28.1517 4.92333 28.4523 4.64467 28.8263 4.454C29.2077 4.26333 29.6367 4.168 30.1133 4.168C30.8393 4.168 31.4187 4.37333 31.8513 4.784C32.2913 5.18733 32.5113 5.752 32.5113 6.478C32.5113 6.91067 32.405 7.33967 32.1923 7.765C31.987 8.19033 31.7157 8.601 31.3783 8.997C31.0483 9.38567 30.6927 9.75233 30.3113 10.097C29.93 10.4417 29.567 10.7533 29.2223 11.032H32.7423V12H27.5503ZM36.4983 12.132C35.9923 12.132 35.5597 12.033 35.2003 11.835C34.841 11.637 34.5587 11.373 34.3533 11.043C34.1553 10.713 34.0343 10.3537 33.9903 9.965H35.0793C35.1453 10.3463 35.303 10.6397 35.5523 10.845C35.8017 11.0503 36.1207 11.153 36.5093 11.153C37.0447 11.153 37.4847 10.9037 37.8293 10.405C38.1813 9.899 38.3683 9.12533 38.3903 8.084C38.2143 8.40667 37.9393 8.68167 37.5653 8.909C37.1987 9.13633 36.7733 9.25 36.2893 9.25C35.8567 9.25 35.4497 9.14733 35.0683 8.942C34.687 8.73667 34.379 8.45067 34.1443 8.084C33.9097 7.71 33.7923 7.27 33.7923 6.764C33.7923 6.31667 33.9023 5.895 34.1223 5.499C34.3423 5.103 34.6503 4.784 35.0463 4.542C35.4497 4.29267 35.9263 4.168 36.4763 4.168C37.041 4.168 37.5177 4.27433 37.9063 4.487C38.295 4.69967 38.6067 4.982 38.8413 5.334C39.076 5.686 39.2447 6.082 39.3473 6.522C39.4573 6.962 39.5123 7.413 39.5123 7.875C39.5123 8.72567 39.3913 9.47 39.1493 10.108C38.9147 10.746 38.5737 11.2447 38.1263 11.604C37.679 11.956 37.1363 12.132 36.4983 12.132ZM36.5533 8.249C36.8613 8.249 37.1363 8.17933 37.3783 8.04C37.6203 7.90067 37.811 7.71733 37.9503 7.49C38.097 7.25533 38.1703 6.99867 38.1703 6.72C38.1703 6.41933 38.097 6.15533 37.9503 5.928C37.811 5.69333 37.6167 5.51 37.3673 5.378C37.1253 5.246 36.8503 5.18 36.5423 5.18C36.2343 5.18 35.9593 5.246 35.7173 5.378C35.4753 5.51 35.281 5.69333 35.1343 5.928C34.995 6.15533 34.9253 6.41567 34.9253 6.709C34.9253 7.17833 35.0793 7.55233 35.3873 7.831C35.6953 8.10967 36.084 8.249 36.5533 8.249Z" fill="black"/>
<path d="M28.1416 53.3262V52.4902C28.6403 52.0942 29.117 51.6945 29.5716 51.2912C30.0263 50.8878 30.4296 50.4918 30.7816 50.1032C31.141 49.7072 31.4233 49.3222 31.6286 48.9482C31.834 48.5668 31.9366 48.2002 31.9366 47.8482C31.9366 47.6135 31.8963 47.3935 31.8156 47.1882C31.735 46.9755 31.603 46.8068 31.4196 46.6822C31.2363 46.5502 30.9906 46.4842 30.6826 46.4842C30.2206 46.4842 29.8723 46.6308 29.6376 46.9242C29.4103 47.2175 29.3003 47.5695 29.3076 47.9802H28.1746C28.182 47.4375 28.2956 46.9828 28.5156 46.6162C28.743 46.2495 29.0436 45.9708 29.4176 45.7802C29.799 45.5895 30.228 45.4942 30.7046 45.4942C31.4306 45.4942 32.01 45.6995 32.4426 46.1102C32.8826 46.5135 33.1026 47.0782 33.1026 47.8042C33.1026 48.2368 32.9963 48.6658 32.7836 49.0912C32.5783 49.5165 32.307 49.9272 31.9696 50.3232C31.6396 50.7118 31.284 51.0785 30.9026 51.4232C30.5213 51.7678 30.1583 52.0795 29.8136 52.3582H33.3336V53.3262H28.1416ZM37.0799 53.4582C36.5666 53.4582 36.1009 53.3665 35.6829 53.1832C35.2723 52.9925 34.9423 52.7285 34.6929 52.3912C34.4509 52.0538 34.3299 51.6578 34.3299 51.2032C34.3299 50.7412 34.4583 50.3268 34.7149 49.9602C34.9789 49.5935 35.3273 49.3442 35.7599 49.2122C35.3713 49.0582 35.0706 48.8345 34.8579 48.5412C34.6453 48.2405 34.5389 47.9105 34.5389 47.5512C34.5389 47.1772 34.6379 46.8362 34.8359 46.5282C35.0339 46.2128 35.3199 45.9635 35.6939 45.7802C36.0753 45.5895 36.5373 45.4942 37.0799 45.4942C37.6226 45.4942 38.0809 45.5895 38.4549 45.7802C38.8363 45.9635 39.1259 46.2128 39.3239 46.5282C39.5219 46.8362 39.6209 47.1772 39.6209 47.5512C39.6209 47.9032 39.5109 48.2332 39.2909 48.5412C39.0783 48.8418 38.7776 49.0655 38.3889 49.2122C38.8216 49.3515 39.1663 49.6045 39.4229 49.9712C39.6869 50.3305 39.8189 50.7412 39.8189 51.2032C39.8189 51.6578 39.6979 52.0538 39.4559 52.3912C39.2139 52.7285 38.8839 52.9925 38.4659 53.1832C38.0553 53.3665 37.5933 53.4582 37.0799 53.4582ZM37.0799 48.8382C37.5053 48.8382 37.8389 48.7282 38.0809 48.5082C38.3303 48.2882 38.4549 48.0058 38.4549 47.6612C38.4549 47.2725 38.3339 46.9755 38.0919 46.7702C37.8499 46.5648 37.5126 46.4622 37.0799 46.4622C36.6473 46.4622 36.3099 46.5648 36.0679 46.7702C35.8259 46.9755 35.7049 47.2725 35.7049 47.6612C35.7049 48.0058 35.8259 48.2882 36.0679 48.5082C36.3099 48.7282 36.6473 48.8382 37.0799 48.8382ZM37.0799 52.4682C37.6079 52.4682 38.0039 52.3435 38.2679 52.0942C38.5319 51.8375 38.6639 51.5112 38.6639 51.1152C38.6639 50.6752 38.5209 50.3378 38.2349 50.1032C37.9563 49.8612 37.5713 49.7402 37.0799 49.7402C36.5886 49.7402 36.1999 49.8612 35.9139 50.1032C35.6279 50.3378 35.4849 50.6752 35.4849 51.1152C35.4849 51.5112 35.6169 51.8375 35.8809 52.0942C36.1523 52.3435 36.5519 52.4682 37.0799 52.4682Z" fill="black"/>
<path d="M28.6143 102.166V101.33C29.113 100.934 29.5896 100.534 30.0443 100.131C30.499 99.7278 30.9023 99.3318 31.2543 98.9431C31.6136 98.5471 31.896 98.1621 32.1013 97.7881C32.3066 97.4068 32.4093 97.0401 32.4093 96.6881C32.4093 96.4535 32.369 96.2335 32.2883 96.0281C32.2076 95.8155 32.0756 95.6468 31.8923 95.5221C31.709 95.3901 31.4633 95.3241 31.1553 95.3241C30.6933 95.3241 30.345 95.4708 30.1103 95.7641C29.883 96.0575 29.773 96.4095 29.7803 96.8201H28.6473C28.6546 96.2775 28.7683 95.8228 28.9883 95.4561C29.2156 95.0895 29.5163 94.8108 29.8903 94.6201C30.2716 94.4295 30.7006 94.3341 31.1773 94.3341C31.9033 94.3341 32.4826 94.5395 32.9153 94.9501C33.3553 95.3535 33.5753 95.9181 33.5753 96.6441C33.5753 97.0768 33.469 97.5058 33.2563 97.9311C33.051 98.3565 32.7796 98.7671 32.4423 99.1631C32.1123 99.5518 31.7566 99.9185 31.3753 100.263C30.994 100.608 30.631 100.919 30.2863 101.198H33.8063V102.166H28.6143ZM35.4626 102.166L38.4436 95.4671H34.4396V94.4661H39.6426V95.3131L36.6836 102.166H35.4626Z" fill="black"/>
<path d="M27.5074 149.754V148.918C28.006 148.522 28.4827 148.122 28.9374 147.719C29.392 147.316 29.7954 146.92 30.1474 146.531C30.5067 146.135 30.789 145.75 30.9944 145.376C31.1997 144.995 31.3024 144.628 31.3024 144.276C31.3024 144.041 31.262 143.821 31.1814 143.616C31.1007 143.403 30.9687 143.235 30.7854 143.11C30.602 142.978 30.3564 142.912 30.0484 142.912C29.5864 142.912 29.238 143.059 29.0034 143.352C28.776 143.645 28.666 143.997 28.6734 144.408H27.5404C27.5477 143.865 27.6614 143.411 27.8814 143.044C28.1087 142.677 28.4094 142.399 28.7834 142.208C29.1647 142.017 29.5937 141.922 30.0704 141.922C30.7964 141.922 31.3757 142.127 31.8084 142.538C32.2484 142.941 32.4684 143.506 32.4684 144.232C32.4684 144.665 32.362 145.094 32.1494 145.519C31.944 145.944 31.6727 146.355 31.3354 146.751C31.0054 147.14 30.6497 147.506 30.2684 147.851C29.887 148.196 29.524 148.507 29.1794 148.786H32.6994V149.754H27.5074ZM36.7833 149.886C36.2186 149.886 35.742 149.78 35.3533 149.567C34.9646 149.354 34.6493 149.072 34.4073 148.72C34.1726 148.368 34.004 147.972 33.9013 147.532C33.7986 147.092 33.7473 146.641 33.7473 146.179C33.7473 145.328 33.8646 144.584 34.0993 143.946C34.3413 143.308 34.686 142.813 35.1333 142.461C35.5806 142.102 36.1233 141.922 36.7613 141.922C37.2673 141.922 37.7 142.021 38.0593 142.219C38.4186 142.417 38.6973 142.681 38.8953 143.011C39.1006 143.341 39.2253 143.7 39.2693 144.089H38.1803C38.1143 143.708 37.9566 143.414 37.7073 143.209C37.458 143.004 37.139 142.901 36.7503 142.901C36.215 142.901 35.7713 143.154 35.4193 143.66C35.0746 144.159 34.8913 144.929 34.8693 145.97C35.0453 145.647 35.3166 145.372 35.6833 145.145C36.0573 144.918 36.4863 144.804 36.9703 144.804C37.403 144.804 37.8063 144.907 38.1803 145.112C38.5616 145.317 38.8696 145.607 39.1043 145.981C39.3463 146.348 39.4673 146.784 39.4673 147.29C39.4673 147.737 39.3573 148.159 39.1373 148.555C38.9173 148.951 38.6056 149.274 38.2023 149.523C37.8063 149.765 37.3333 149.886 36.7833 149.886ZM36.7173 148.874C37.0253 148.874 37.3003 148.808 37.5423 148.676C37.7843 148.544 37.975 148.364 38.1143 148.137C38.2536 147.902 38.3233 147.638 38.3233 147.345C38.3233 146.876 38.1693 146.502 37.8613 146.223C37.5606 145.944 37.1756 145.805 36.7063 145.805C36.3983 145.805 36.1196 145.875 35.8703 146.014C35.6283 146.153 35.4376 146.34 35.2983 146.575C35.159 146.802 35.0893 147.055 35.0893 147.334C35.0893 147.635 35.159 147.902 35.2983 148.137C35.445 148.364 35.6393 148.544 35.8813 148.676C36.1306 148.808 36.4093 148.874 36.7173 148.874Z" fill="black"/>
<path d="M27.5933 196.089V195.253C28.092 194.857 28.5686 194.458 29.0233 194.054C29.478 193.651 29.8813 193.255 30.2333 192.866C30.5926 192.47 30.875 192.085 31.0803 191.711C31.2856 191.33 31.3883 190.963 31.3883 190.611C31.3883 190.377 31.348 190.157 31.2673 189.951C31.1866 189.739 31.0546 189.57 30.8713 189.445C30.688 189.313 30.4423 189.247 30.1343 189.247C29.6723 189.247 29.324 189.394 29.0893 189.687C28.862 189.981 28.752 190.333 28.7593 190.743H27.6263C27.6336 190.201 27.7473 189.746 27.9673 189.379C28.1946 189.013 28.4953 188.734 28.8693 188.543C29.2506 188.353 29.6796 188.257 30.1563 188.257C30.8823 188.257 31.4616 188.463 31.8943 188.873C32.3343 189.277 32.5543 189.841 32.5543 190.567C32.5543 191 32.448 191.429 32.2353 191.854C32.03 192.28 31.7586 192.69 31.4213 193.086C31.0913 193.475 30.7356 193.842 30.3543 194.186C29.973 194.531 29.61 194.843 29.2653 195.121H32.7853V196.089H27.5933ZM36.7262 196.221C36.1836 196.221 35.7142 196.126 35.3182 195.935C34.9222 195.737 34.6069 195.47 34.3722 195.132C34.1449 194.788 34.0056 194.399 33.9542 193.966H35.0982C35.1716 194.333 35.3549 194.637 35.6482 194.879C35.9416 195.114 36.3046 195.231 36.7372 195.231C37.0599 195.231 37.3386 195.154 37.5732 195C37.8079 194.839 37.9912 194.626 38.1232 194.362C38.2552 194.098 38.3212 193.801 38.3212 193.471C38.3212 192.951 38.1746 192.536 37.8812 192.228C37.5879 191.913 37.2176 191.755 36.7702 191.755C36.3889 191.755 36.0626 191.847 35.7912 192.03C35.5199 192.206 35.3219 192.43 35.1972 192.701H34.0862L34.7462 188.389H38.9042V189.412H35.6262L35.2302 191.469C35.3989 191.279 35.6299 191.121 35.9232 190.996C36.2239 190.864 36.5612 190.798 36.9352 190.798C37.4559 190.798 37.9032 190.919 38.2772 191.161C38.6512 191.396 38.9372 191.715 39.1352 192.118C39.3406 192.522 39.4432 192.969 39.4432 193.46C39.4432 193.974 39.3332 194.439 39.1132 194.857C38.8932 195.275 38.5779 195.609 38.1672 195.858C37.7639 196.1 37.2836 196.221 36.7262 196.221Z" fill="black"/>
<path d="M58.0625 192H1475" stroke="#ECECEC" stroke-width="1.25231" stroke-linecap="square"/>
<path d="M58.0625 146H1475" stroke="#ECECEC" stroke-width="1.25231" stroke-linecap="square"/>
<path d="M58.0625 99.5H1475" stroke="#ECECEC" stroke-width="1.25231" stroke-linecap="square"/>
<path d="M58.0625 53H1475" stroke="#ECECEC" stroke-width="1.25231" stroke-linecap="square"/>
<path d="M58.0625 7H1475" stroke="#ECECEC" stroke-width="1.25231" stroke-linecap="square"/>
<path d="M90 118.122C96.4038 116.217 123.582 120.475 156.833 118.06C183.014 116.158 205.789 110.05 239.307 108.205C302.925 104.702 354.846 101.102 384.348 92.735C413.85 84.3685 458.133 56 510.903 56C563.674 56 590.534 70.7557 610.441 80.4757C629.509 89.7857 666.237 112.147 725.621 114.612C791.167 117.334 845.067 133.928 923.275 136.717C964.959 138.204 998.353 135.31 1035.61 130.815C1072.87 126.319 1065.58 124.377 1149.37 120.911C1218.52 118.051 1236.6 108.205 1304.36 107.02C1372.12 105.835 1403.46 142.911 1475 139.816" stroke="#004D8C" stroke-width="2.50462" stroke-linecap="round" stroke-linejoin="round"/>
</svg>
