<svg width="40" height="36" viewBox="0 0 40 36" fill="none" xmlns="http://www.w3.org/2000/svg">
<g clip-path="url(#clip0_515_295356)">
<path d="M1.47062 35.5499C1.33452 35.5693 1.19643 35.5693 1.06033 35.5499C0.78391 35.4584 0.544717 35.2766 0.379667 35.0326C0.214617 34.7886 0.132886 34.496 0.14709 34.1999V32.8499C0.147614 26.7495 2.27975 20.849 6.16082 16.2074C10.0419 11.5659 15.4178 8.48718 21.3236 7.52395V1.79995C21.3236 1.54924 21.392 1.30348 21.5212 1.09021C21.6505 0.876947 21.8353 0.704596 22.0552 0.592475C22.275 0.480354 22.5212 0.432891 22.766 0.455407C23.0108 0.477922 23.2446 0.569525 23.4412 0.719952L39.3236 12.87C39.4879 12.9957 39.6214 13.1588 39.7132 13.3462C39.8051 13.5337 39.853 13.7404 39.853 13.95C39.853 14.1595 39.8051 14.3662 39.7132 14.5537C39.6214 14.7411 39.4879 14.9042 39.3236 15.03L23.4412 27.1799C23.2446 27.3304 23.0108 27.422 22.766 27.4445C22.5212 27.467 22.275 27.4195 22.0552 27.3074C21.8353 27.1953 21.6505 27.023 21.5212 26.8097C21.392 26.5964 21.3236 26.3507 21.3236 26.0999V21.0374C14.9145 22.1044 9.17537 25.7031 5.34856 31.0544L2.54268 34.9964C2.41947 35.1684 2.2581 35.3082 2.07178 35.4044C1.88545 35.5006 1.67945 35.5505 1.47062 35.5499ZM23.9706 4.49995V8.71195C23.9726 9.04569 23.8533 9.36835 23.6358 9.61766C23.4183 9.86696 23.1179 10.0252 22.7927 10.062C17.8021 10.6173 13.1369 12.8591 9.53944 16.4307C5.94197 20.0022 3.61886 24.6984 2.93974 29.7719L3.1515 29.4884C5.41641 26.3163 8.3115 23.6669 11.6479 21.7129C14.9843 19.759 18.6871 18.5444 22.5147 18.1485C22.6992 18.1309 22.8853 18.1531 23.0608 18.2136C23.2364 18.274 23.3975 18.3714 23.5339 18.4995C23.671 18.6257 23.7807 18.7798 23.8559 18.9518C23.9311 19.1239 23.9702 19.3101 23.9706 19.4985V23.4L36.3192 13.95L23.9706 4.49995Z" fill="black"/>
</g>
<defs>
<clipPath id="clip0_515_295356">
<rect width="40" height="36" fill="white"/>
</clipPath>
</defs>
</svg>
