<svg width="22" height="22" viewBox="0 0 22 22" fill="none" xmlns="http://www.w3.org/2000/svg">
<path fill-rule="evenodd" clip-rule="evenodd" d="M2.86474 14.365C2.95278 14.0595 3.11136 13.7815 3.32638 13.5558L13.4974 2.87822C14.8243 1.48526 16.9756 1.48526 18.3025 2.87822C19.6294 4.27118 19.6294 6.52962 18.3025 7.92258L18.1522 8.08036L19.897 9.91202C20.2574 10.2905 20.2574 10.904 19.897 11.2824L15.2816 16.1276C14.9212 16.506 14.3367 16.506 13.9762 16.1276C13.6157 15.7492 13.6157 15.1356 13.9762 14.7572L17.9388 10.5972L16.8468 9.45078L8.13146 18.6001C7.95787 18.7823 7.75185 18.926 7.52576 19.0232L7.51477 19.0347L7.51011 19.0298C7.46114 19.0503 7.41126 19.0687 7.36058 19.0847L4.21469 20.0838C3.56317 20.2907 2.85606 20.1044 2.37475 19.5991C1.89344 19.0939 1.71603 18.3515 1.91311 17.6676L2.86474 14.365ZM16.8468 6.70995L16.9971 6.55216C17.603 5.91606 17.603 4.88474 16.9971 4.24864C16.3911 3.61254 15.4087 3.61254 14.8028 4.24864L14.6525 4.40642L16.8468 6.70995ZM13.3471 5.77684L15.5414 8.08037L7.61613 16.4003L5.42187 14.0967L13.3471 5.77684ZM4.32237 16L4.39242 15.7569L6.03475 17.481L5.80318 17.5545L3.68016 18.2287L4.32237 16Z" fill="#C4C8D4"/>
</svg>
