<svg width="22" height="22" viewBox="0 0 22 22" fill="none" xmlns="http://www.w3.org/2000/svg">
<path fill-rule="evenodd" clip-rule="evenodd" d="M20.1673 8.70825C20.1673 12.5052 17.0893 15.5833 13.2923 15.5833C11.705 15.5833 10.2433 15.0453 9.07961 14.1418C9.03578 14.2345 8.97552 14.3214 8.89883 14.3981L3.39883 19.8981C3.04085 20.2561 2.46045 20.2561 2.10247 19.8981C1.74449 19.5401 1.74449 18.9597 2.10247 18.6017L7.60247 13.1017C7.67916 13.025 7.76606 12.9648 7.85879 12.921C6.95526 11.7573 6.41732 10.2956 6.41732 8.70825C6.41732 4.91129 9.49536 1.83325 13.2923 1.83325C17.0893 1.83325 20.1673 4.91129 20.1673 8.70825ZM18.334 8.70825C18.334 5.92382 16.0768 3.66659 13.2923 3.66659C10.5079 3.66659 8.25065 5.92382 8.25065 8.70825C8.25065 11.4927 10.5079 13.7499 13.2923 13.7499C16.0768 13.7499 18.334 11.4927 18.334 8.70825Z" fill="#C4C8D4"/>
</svg>
