<svg width="14" height="14" viewBox="0 0 14 14" fill="none" xmlns="http://www.w3.org/2000/svg">
<path fill-rule="evenodd" clip-rule="evenodd" d="M3.67085 4.83776C3.44305 5.06557 3.44305 5.43492 3.67085 5.66272C3.89866 5.89053 4.26801 5.89053 4.49581 5.66272L7 3.15854L9.50419 5.66272C9.73199 5.89053 10.1013 5.89053 10.3291 5.66272C10.557 5.43492 10.557 5.06557 10.3291 4.83777L7.41248 1.9211C7.30308 1.8117 7.15471 1.75024 7 1.75024C6.84529 1.75024 6.69692 1.8117 6.58752 1.9211L3.67085 4.83776Z" fill="#8992A9"/>
<path fill-rule="evenodd" clip-rule="evenodd" d="M10.3291 9.16281C10.557 8.935 10.557 8.56565 10.3291 8.33785C10.1013 8.11004 9.73199 8.11004 9.50419 8.33785L7 10.842L4.49581 8.33785C4.26801 8.11004 3.89866 8.11004 3.67085 8.33785C3.44305 8.56565 3.44305 8.935 3.67085 9.16281L6.58752 12.0795C6.81533 12.3073 7.18467 12.3073 7.41248 12.0795L10.3291 9.16281Z" fill="#8992A9"/>
</svg>
