<svg width="24" height="24" viewBox="0 0 24 24" fill="none" xmlns="http://www.w3.org/2000/svg">
<path d="M9.84753 13.6457L16.1973 7.29596C16.3946 7.09865 16.6457 7 16.9507 7C17.2556 7 17.5067 7.09865 17.704 7.29596C17.9013 7.49327 18 7.74439 18 8.04933C18 8.35426 17.9013 8.60538 17.704 8.80269L10.6009 15.9058C10.3856 16.1211 10.1345 16.2287 9.84753 16.2287C9.56054 16.2287 9.30942 16.1211 9.09417 15.9058L6.29596 13.1076C6.09865 12.9103 6 12.6592 6 12.3543C6 12.0493 6.09865 11.7982 6.29596 11.6009C6.49327 11.4036 6.74439 11.3049 7.04933 11.3049C7.35426 11.3049 7.60538 11.4036 7.80269 11.6009L9.84753 13.6457Z" fill="#C4C8D4"/>
</svg>
