<svg width="24" height="24" viewBox="0 0 24 24" fill="none" xmlns="http://www.w3.org/2000/svg">
<path d="M10.5031 16.5C10.5031 16.303 10.5419 16.108 10.6172 15.926C10.6926 15.744 10.8031 15.5786 10.9424 15.4393C11.0817 15.3001 11.247 15.1896 11.429 15.1142C11.611 15.0388 11.8061 15 12.0031 15C12.2 15 12.3951 15.0388 12.5771 15.1142C12.7591 15.1896 12.9244 15.3001 13.0637 15.4393C13.203 15.5786 13.3135 15.744 13.3889 15.926C13.4643 16.108 13.5031 16.303 13.5031 16.5C13.5031 16.8978 13.345 17.2794 13.0637 17.5607C12.7824 17.842 12.4009 18 12.0031 18C11.6052 18 11.2237 17.842 10.9424 17.5607C10.6611 17.2794 10.5031 16.8978 10.5031 16.5ZM10.6501 7.4925C10.6301 7.30326 10.6501 7.11194 10.7089 6.93094C10.7676 6.74995 10.8637 6.58332 10.991 6.44188C11.1183 6.30044 11.2739 6.18734 11.4478 6.10992C11.6216 6.03251 11.8098 5.9925 12.0001 5.9925C12.1903 5.9925 12.3785 6.03251 12.5523 6.10992C12.7262 6.18734 12.8818 6.30044 13.0091 6.44188C13.1364 6.58332 13.2325 6.74995 13.2913 6.93094C13.35 7.11194 13.37 7.30326 13.3501 7.4925L12.8251 12.753C12.8037 12.9569 12.7076 13.1458 12.5553 13.283C12.4029 13.4203 12.2051 13.4962 12.0001 13.4962C11.795 13.4962 11.5972 13.4203 11.4449 13.283C11.2925 13.1458 11.1964 12.9569 11.1751 12.753L10.6501 7.4925Z" fill="#E4A951"/>
</svg>
