<svg width="172" height="173" viewBox="0 0 172 173" fill="none" xmlns="http://www.w3.org/2000/svg">
<circle cx="85.6797" cy="86.5991" r="62.7218" transform="rotate(30 85.6797 86.5991)" fill="#FFE0D4"/>
<g clip-path="url(#clip0_1_1093)">
<path d="M82.2898 103.129C91.2509 104.937 99.981 99.1379 101.789 90.1768C103.597 81.2157 97.7982 72.4856 88.8371 70.6777C79.876 68.8697 71.1459 74.6685 69.338 83.6296C67.53 92.5907 73.3287 101.321 82.2898 103.129Z" fill="#0088CC"/>
<path fill-rule="evenodd" clip-rule="evenodd" d="M82.1588 80.4898L91.2593 82.3258C91.5812 82.3908 91.8934 82.503 92.198 82.7276C92.5631 82.9967 92.7171 83.336 92.8227 83.5852C92.8309 83.6046 92.8382 83.6243 92.8447 83.6443C92.9575 83.9932 92.98 84.3499 92.9065 84.7139C92.8368 85.0597 92.6785 85.4199 92.4277 85.711C92.4253 85.7139 92.4229 85.7166 92.4205 85.7193L84.6783 94.4357C84.5076 94.628 84.2473 94.7145 83.9954 94.6628C83.7436 94.6111 83.5385 94.4288 83.4574 94.1849L79.8018 83.1909C79.8007 83.1879 79.7997 83.1849 79.7986 83.1818C79.7124 82.9429 79.579 82.5735 79.6298 82.1417C79.6765 81.7446 79.8432 81.3709 80.108 81.0711C80.3727 80.7713 80.7229 80.5596 81.1119 80.4653C81.5288 80.3641 81.9153 80.4407 82.1588 80.4898ZM85.6836 82.6692L81.8742 81.9007C81.6239 81.8502 81.5247 81.8462 81.4512 81.8641C81.3496 81.8887 81.2572 81.9443 81.1868 82.0239C81.1165 82.1036 81.0718 82.2034 81.0593 82.3098C81.0521 82.3707 81.0627 82.4443 81.159 82.7113C81.161 82.7169 81.1629 82.7225 81.1648 82.7281L83.9698 91.1641L85.6836 82.6692ZM87.0946 82.9539L85.3731 91.4861L91.3398 84.7685C91.4082 84.6878 91.4686 84.5633 91.4956 84.4292C91.5176 84.3204 91.5141 84.2214 91.4833 84.1139C91.4458 84.0271 91.4217 83.9804 91.4003 83.9473C91.3819 83.9191 91.3667 83.9029 91.3439 83.8861C91.249 83.8161 91.1464 83.7714 90.9746 83.7367L87.0946 82.9539Z" fill="white"/>
</g>
<path d="M108.446 53.1929L108.063 53.8568L104.985 52.0795L105.368 51.4156L108.446 53.1929ZM108.7 46.0154L105.145 52.1723L104.329 51.7011L107.884 45.5442L108.7 46.0154Z" fill="black"/>
<path d="M117.523 52.408L112.769 57.6941L112.069 57.0631L116.823 51.777L117.523 52.408Z" fill="black"/>
<path d="M118.968 63.1005L125.073 61.2467L125.672 62.073L118.38 64.1271L117.953 63.5381L118.968 63.1005ZM122.694 57.9654L119.037 63.1954L118.317 64.0401L117.89 63.4511L122.095 57.1391L122.694 57.9654Z" fill="black"/>
<path d="M123.936 72.9918L123.236 73.3046L121.709 69.8633L122.409 69.5505L123.936 72.9918ZM128.277 67.1367L121.786 70.0374L121.404 69.1759L127.895 66.2753L128.277 67.1367ZM126.734 71.1958L126.034 71.5086L124.709 68.5225L125.409 68.2098L126.734 71.1958ZM129.707 70.3593L129.002 70.6741L127.496 67.2774L128.2 66.9626L129.707 70.3593Z" fill="black"/>
<path d="M131.988 87.4129L125.512 85.0677L125.513 84.1057L132.619 86.8067L132.618 87.4268L131.988 87.4129ZM125.506 89.3938L131.989 87.0272L132.619 87.0118L132.618 87.6319L125.505 90.3606L125.506 89.3938ZM128.138 89.2684L127.367 89.2694L127.372 85.2753L128.144 85.2743L128.138 89.2684Z" fill="black"/>
<path d="M131.177 98.5773L130.982 99.4941L126.276 98.4982C125.754 98.3877 125.344 98.1795 125.047 97.8736C124.749 97.5677 124.554 97.2037 124.461 96.7814C124.371 96.363 124.373 95.9293 124.469 95.4804C124.57 95.0093 124.747 94.6009 125 94.2553C125.256 93.9135 125.582 93.6679 125.976 93.5186C126.37 93.3724 126.828 93.3546 127.351 93.4651L132.056 94.461L131.861 95.3731L127.156 94.3772C126.793 94.3003 126.479 94.3038 126.215 94.3877C125.951 94.4715 125.736 94.6206 125.57 94.8351C125.404 95.0528 125.287 95.3208 125.219 95.6392C125.15 95.9607 125.148 96.253 125.212 96.516C125.275 96.7822 125.41 97.0071 125.617 97.1907C125.824 97.3743 126.109 97.5045 126.472 97.5814L131.177 98.5773Z" fill="black"/>
<path d="M123.24 106.002L122.858 106.858C122.468 106.631 122.153 106.35 121.913 106.016C121.674 105.681 121.537 105.298 121.501 104.865C121.469 104.434 121.569 103.958 121.8 103.438C121.97 103.057 122.196 102.743 122.478 102.494C122.758 102.248 123.079 102.072 123.44 101.965C123.804 101.86 124.198 101.829 124.621 101.871C125.046 101.917 125.486 102.042 125.941 102.244L126.588 102.532C127.043 102.734 127.428 102.977 127.744 103.26C128.061 103.547 128.302 103.863 128.466 104.207C128.629 104.553 128.71 104.919 128.71 105.304C128.709 105.688 128.62 106.081 128.441 106.483C128.222 106.973 127.945 107.347 127.61 107.604C127.274 107.861 126.901 108.01 126.491 108.052C126.082 108.098 125.653 108.048 125.205 107.902L125.586 107.046C125.908 107.139 126.203 107.178 126.471 107.161C126.741 107.146 126.982 107.061 127.194 106.906C127.405 106.751 127.586 106.505 127.736 106.169C127.864 105.881 127.923 105.602 127.911 105.333C127.897 105.067 127.823 104.815 127.687 104.576C127.549 104.34 127.356 104.122 127.107 103.922C126.857 103.722 126.56 103.546 126.215 103.392L125.559 103.1C125.241 102.959 124.927 102.859 124.619 102.8C124.309 102.744 124.018 102.737 123.745 102.78C123.473 102.823 123.229 102.923 123.013 103.079C122.8 103.238 122.629 103.461 122.501 103.749C122.338 104.115 122.266 104.432 122.285 104.701C122.305 104.97 122.398 105.207 122.566 105.414C122.733 105.623 122.958 105.819 123.24 106.002Z" fill="black"/>
<path d="M123.362 114.889L117.612 110.708L118.157 109.958L123.907 114.138L123.362 114.889ZM122.019 116.738L121.395 116.284L124.623 111.839L125.247 112.293L122.019 116.738Z" fill="black"/>
<path d="M116.726 122.122L111.973 116.835L112.673 116.204L117.425 121.491L116.726 122.122Z" fill="black"/>
<path d="M105.017 126.125L104.793 125.735C104.527 125.273 104.346 124.824 104.25 124.391C104.154 123.957 104.141 123.549 104.21 123.167C104.279 122.785 104.427 122.438 104.653 122.126C104.877 121.816 105.176 121.553 105.551 121.336C105.914 121.125 106.287 121 106.669 120.959C107.048 120.92 107.423 120.964 107.793 121.092C108.161 121.221 108.511 121.435 108.843 121.731C109.175 122.028 109.475 122.407 109.741 122.87L109.965 123.259C110.231 123.722 110.41 124.17 110.501 124.602C110.591 125.039 110.6 125.449 110.528 125.833C110.458 126.22 110.311 126.568 110.088 126.878C109.862 127.19 109.567 127.451 109.203 127.661C108.829 127.878 108.452 128.006 108.072 128.045C107.69 128.086 107.316 128.04 106.949 127.906C106.582 127.776 106.235 127.562 105.908 127.262C105.58 126.966 105.283 126.587 105.017 126.125ZM105.6 125.268L105.829 125.666C106.04 126.032 106.265 126.335 106.503 126.573C106.739 126.813 106.984 126.987 107.238 127.095C107.492 127.204 107.752 127.247 108.017 127.225C108.28 127.205 108.542 127.119 108.804 126.967C109.057 126.821 109.258 126.638 109.407 126.42C109.553 126.204 109.644 125.958 109.68 125.681C109.714 125.406 109.688 125.105 109.605 124.777C109.521 124.449 109.374 124.102 109.163 123.735L108.934 123.337C108.721 122.968 108.493 122.663 108.25 122.424C108.009 122.188 107.759 122.015 107.501 121.905C107.241 121.799 106.981 121.756 106.722 121.775C106.459 121.795 106.201 121.879 105.948 122.025C105.683 122.179 105.476 122.364 105.327 122.582C105.178 122.8 105.089 123.046 105.058 123.319C105.027 123.597 105.056 123.898 105.145 124.222C105.235 124.55 105.387 124.898 105.6 125.268Z" fill="black"/>
<path d="M97.6111 132.426L95.424 125.661L96.3245 125.367L101.414 129.474L99.7268 124.256L100.623 123.964L102.81 130.728L101.914 131.021L96.8063 126.905L98.4977 132.136L97.6111 132.426Z" fill="black"/>
<path d="M81.924 130.206L81.9029 130.405C81.8733 130.684 81.7615 130.905 81.5674 131.068C81.37 131.23 81.1192 131.296 80.8149 131.264C80.5073 131.232 80.2741 131.116 80.1152 130.917C79.9564 130.717 79.8918 130.478 79.9214 130.199L79.9425 130C79.9717 129.725 80.085 129.506 80.2823 129.343C80.4761 129.184 80.7267 129.12 81.0343 129.152C81.3387 129.183 81.5704 129.297 81.7296 129.494C81.8884 129.694 81.9532 129.931 81.924 130.206Z" fill="black"/>
<path d="M63.1226 120.788L63.5059 120.124L66.5843 121.901L66.201 122.565L63.1226 120.788ZM62.869 127.965L66.4237 121.808L67.2398 122.28L63.6851 128.437L62.869 127.965Z" fill="black"/>
<path d="M54.0464 121.573L58.8004 116.287L59.5003 116.918L54.7464 122.204L54.0464 121.573Z" fill="black"/>
<path d="M52.6009 110.88L46.4967 112.734L45.8978 111.907L53.1895 109.853L53.6165 110.442L52.6009 110.88ZM48.8753 116.015L52.5321 110.785L53.2525 109.94L53.6795 110.529L49.4742 116.841L48.8753 116.015Z" fill="black"/>
<path d="M47.6335 100.988L48.3334 100.676L49.8598 104.117L49.1599 104.43L47.6335 100.988ZM43.2919 106.844L49.7826 103.943L50.1647 104.804L43.674 107.705L43.2919 106.844ZM44.8353 102.784L45.5351 102.472L46.8596 105.458L46.1597 105.77L44.8353 102.784ZM41.8625 103.621L42.5668 103.306L44.0734 106.703L43.3691 107.018L41.8625 103.621Z" fill="black"/>
<path d="M39.5809 86.5673L46.0574 88.9126L46.0562 89.8745L38.9502 87.1735L38.951 86.5534L39.5809 86.5673ZM46.0629 84.5864L39.5804 86.953L38.9505 86.9685L38.9513 86.3483L46.0641 83.6196L46.0629 84.5864ZM43.4309 84.7118L44.2024 84.7108L44.1973 88.705L43.4258 88.7059L43.4309 84.7118Z" fill="black"/>
<path d="M40.3919 75.403L40.5876 74.4861L45.2929 75.482C45.8152 75.5926 46.2251 75.8008 46.5226 76.1066C46.8202 76.4125 47.0154 76.7766 47.1083 77.1988C47.1987 77.6173 47.1961 78.0509 47.1002 78.4998C46.9997 78.9709 46.8226 79.3793 46.5691 79.7249C46.3131 80.0667 45.9877 80.3123 45.593 80.4617C45.199 80.6078 44.7409 80.6257 44.2186 80.5151L39.5133 79.5192L39.7079 78.6071L44.4133 79.603C44.7763 79.6799 45.09 79.6764 45.3542 79.5926C45.6184 79.5087 45.8333 79.3596 45.9989 79.1451C46.1652 78.9274 46.2823 78.6594 46.3503 78.341C46.4189 78.0195 46.4214 77.7272 46.3577 77.4642C46.2947 77.198 46.1596 76.9731 45.9525 76.7895C45.7454 76.6059 45.4603 76.4757 45.0972 76.3989L40.3919 75.403Z" fill="black"/>
<path d="M48.3295 67.9783L48.7111 67.1219C49.1016 67.3491 49.4166 67.63 49.656 67.9645C49.8954 68.299 50.0328 68.6825 50.0681 69.1151C50.1005 69.5463 50.0007 70.0221 49.7688 70.5425C49.5993 70.9231 49.3735 71.2377 49.0916 71.4864C48.8111 71.7321 48.4903 71.9083 48.1292 72.0148C47.7651 72.1201 47.3715 72.1516 46.9484 72.1095C46.5236 72.063 46.0837 71.9386 45.6287 71.7361L44.9818 71.4484C44.5267 71.2459 44.1413 71.0032 43.8255 70.7202C43.508 70.4329 43.2673 70.1174 43.1033 69.7737C42.9406 69.427 42.8594 69.0613 42.8598 68.6767C42.8601 68.292 42.9497 67.899 43.1286 67.4976C43.3472 67.007 43.6242 66.6332 43.9596 66.3763C44.2951 66.1194 44.6681 65.97 45.0787 65.9282C45.4877 65.8821 45.9163 65.9321 46.3645 66.078L45.9829 66.9343C45.661 66.841 45.3663 66.8025 45.0988 66.8189C44.8284 66.834 44.5873 66.9192 44.3756 67.0744C44.1639 67.2296 43.9832 67.4752 43.8334 67.8112C43.7049 68.0996 43.6467 68.3783 43.6587 68.6473C43.672 68.9133 43.7467 69.1656 43.8827 69.4043C44.02 69.6399 44.2134 69.8578 44.4628 70.0578C44.7122 70.2578 45.0094 70.4346 45.3544 70.5881L46.0102 70.8798C46.3285 71.0214 46.642 71.1217 46.9507 71.1806C47.2607 71.2366 47.5518 71.2432 47.8239 71.2003C48.096 71.1575 48.3401 71.0576 48.5561 70.9008C48.7691 70.7426 48.9399 70.5193 49.0684 70.2309C49.2314 69.8652 49.3032 69.548 49.284 69.2793C49.2647 69.0106 49.171 68.773 49.0029 68.5664C48.8361 68.3568 48.6117 68.1608 48.3295 67.9783Z" fill="black"/>
<path d="M48.2071 59.0913L53.9574 63.2718L53.4124 64.0225L47.662 59.842L48.2071 59.0913ZM49.5497 57.2421L50.1737 57.6958L46.9463 62.1408L46.3223 61.6872L49.5497 57.2421Z" fill="black"/>
<path d="M54.8434 51.858L59.596 57.1454L58.8962 57.7766L54.1436 52.4892L54.8434 51.858Z" fill="black"/>
<path d="M66.5521 47.8557L66.7762 48.245C67.0425 48.7077 67.2235 49.1558 67.3192 49.5895C67.4148 50.0231 67.428 50.4311 67.3589 50.8134C67.2898 51.1957 67.1421 51.5427 66.9158 51.8543C66.6923 52.1642 66.3932 52.4277 66.0186 52.6446C65.6552 52.855 65.2824 52.9806 64.9002 53.0214C64.5208 53.0605 64.146 53.0161 63.7756 52.8883C63.4081 52.7588 63.0582 52.5457 62.726 52.2491C62.3937 51.9525 62.0944 51.5728 61.8281 51.1102L61.604 50.7209C61.3376 50.2582 61.1589 49.8106 61.0677 49.3782C60.9777 48.9413 60.9687 48.5309 61.0406 48.1469C61.1109 47.7601 61.2578 47.4118 61.4813 47.1018C61.7076 46.7902 62.0024 46.5292 62.3658 46.3188C62.7405 46.1019 63.1175 45.9738 63.4969 45.9347C63.8791 45.894 64.2533 45.9406 64.6197 46.0745C64.9872 46.204 65.3342 46.4187 65.6609 46.7186C65.9887 47.014 66.2857 47.393 66.5521 47.8557ZM65.9691 48.7124L65.7401 48.3146C65.529 47.9478 65.3042 47.6454 65.0658 47.4073C64.8301 47.1676 64.5852 46.9934 64.3311 46.8848C64.077 46.7762 63.8173 46.7328 63.552 46.7548C63.2895 46.7751 63.0273 46.8611 62.7653 47.0128C62.5118 47.1596 62.3106 47.3419 62.1618 47.5598C62.0158 47.7759 61.9248 48.0224 61.8888 48.299C61.8555 48.5741 61.8807 48.8755 61.9642 49.2033C62.0477 49.531 62.1951 49.8783 62.4062 50.2451L62.6352 50.6428C62.8479 51.0124 63.0757 51.3168 63.3186 51.5561C63.5599 51.7925 63.8098 51.9657 64.0684 52.0755C64.3281 52.1809 64.5878 52.2242 64.8475 52.2055C65.11 52.1852 65.368 52.1016 65.6215 51.9548C65.8863 51.8015 66.0931 51.6159 66.2419 51.3981C66.3907 51.1803 66.4803 50.9347 66.5107 50.6613C66.5424 50.3834 66.5136 50.0823 66.4244 49.7577C66.3336 49.4304 66.1819 49.0819 65.9691 48.7124Z" fill="black"/>
<path d="M73.958 41.5543L76.145 48.3189L75.2446 48.613L70.1554 44.5065L71.8423 49.7239L70.9464 50.0165L68.7593 43.2518L69.6552 42.9593L74.7628 47.0752L73.0714 41.8438L73.958 41.5543Z" fill="black"/>
<path d="M89.6451 43.7742L89.6662 43.5751C89.6958 43.2967 89.8076 43.076 90.0017 42.9129C90.199 42.7501 90.4499 42.6846 90.7542 42.7162C91.0618 42.7482 91.295 42.8641 91.4538 43.0639C91.6127 43.2637 91.6773 43.5028 91.6477 43.7812L91.6266 43.9802C91.5974 44.2554 91.4841 44.4743 91.2868 44.6371C91.093 44.7969 90.8424 44.8609 90.5348 44.8289C90.2304 44.7972 89.9987 44.6831 89.8395 44.4866C89.6807 44.2868 89.6159 44.0493 89.6451 43.7742Z" fill="black"/>
<defs>
<clipPath id="clip0_1_1093">
<rect width="33.1049" height="33.1049" fill="white" transform="translate(72.6116 67.4041) rotate(11.4067)"/>
</clipPath>
</defs>
</svg>
