<svg width="50" height="42" viewBox="0 0 50 42" fill="none" xmlns="http://www.w3.org/2000/svg">
<g clip-path="url(#clip0_356_296892)">
<path d="M32 30.9999C32 30.9999 40.312 30.9999 41.098 30.9999C45.463 30.9999 49 27.4629 49 23.0989C49 18.7349 45.463 15.1969 41.098 15.1969C41.078 15.1969 41.06 15.1999 41.04 15.1999C41.101 14.7059 41.143 14.2059 41.143 13.6959C41.143 6.9859 35.704 1.5459 28.993 1.5459C23.764 1.5459 19.321 4.8549 17.607 9.4869C16.52 8.3979 15.016 7.7229 13.356 7.7229C10.037 7.7229 7.347 10.4129 7.347 13.7309C7.347 13.8159 7.357 13.8979 7.36 13.9819C3.695 14.9949 1 18.3439 1 22.3309C1 27.1189 4.881 30.9999 9.67 30.9999C10.497 30.9999 18 30.9999 18 30.9999" stroke="white" stroke-width="2" stroke-miterlimit="10" stroke-linecap="round" stroke-linejoin="round"/>
<path d="M20 24L25 19L30 24" stroke="white" stroke-width="2" stroke-miterlimit="10" stroke-linecap="round"/>
<path d="M25 39V19.333" stroke="white" stroke-width="2" stroke-miterlimit="10" stroke-linecap="round"/>
</g>
<defs>
<clipPath id="clip0_356_296892">
<rect width="50" height="42" fill="white"/>
</clipPath>
</defs>
</svg>
