<svg width="50" height="50" viewBox="0 0 50 50" fill="none" xmlns="http://www.w3.org/2000/svg">
<path d="M25 48.4375C37.9442 48.4375 48.4375 37.9442 48.4375 25C48.4375 12.0558 37.9442 1.5625 25 1.5625C12.0558 1.5625 1.5625 12.0558 1.5625 25C1.5625 37.9442 12.0558 48.4375 25 48.4375Z" fill="#FF4500"/>
<path d="M40.625 25C40.625 23.2735 39.2266 21.875 37.5 21.875C36.3672 21.875 35.375 22.4766 34.8281 23.3829C32.5642 21.6285 29.3658 20.4912 25.787 20.3424L27.1942 11.9004L32.6233 13.2576C32.6876 13.2739 32.7505 13.2668 32.814 13.2666C32.8139 13.2716 32.8125 13.2762 32.8125 13.2813C32.8125 14.5757 33.8618 15.625 35.1562 15.625C36.4507 15.625 37.5 14.5757 37.5 13.2813C37.5 11.9869 36.4507 10.9375 35.1562 10.9375C34.3892 10.9375 33.7145 11.3114 33.2869 11.8811C33.2045 11.8178 33.1089 11.7692 33.0017 11.7424L26.7517 10.1799C26.5396 10.125 26.3168 10.1639 26.1345 10.2845C25.9521 10.4035 25.8278 10.5942 25.7919 10.8094L24.2294 20.1844C24.2204 20.2383 24.2327 20.289 24.2348 20.3416C20.6471 20.4866 17.4404 21.6249 15.1719 23.3829C14.625 22.4766 13.6328 21.875 12.5 21.875C10.7734 21.875 9.375 23.2735 9.375 25C9.375 26.5313 10.4688 27.7969 11.9219 28.0704C11.7891 28.5938 11.7188 29.1328 11.7188 29.6875C11.7188 34.8672 17.6641 39.0625 25 39.0625C32.3359 39.0625 38.2812 34.8672 38.2812 29.6875C38.2812 29.1328 38.2109 28.5938 38.0781 28.0704C39.5312 27.7969 40.625 26.5313 40.625 25ZM17.1875 27.3438C17.1875 26.0494 18.2368 25 19.5312 25C20.8257 25 21.875 26.0494 21.875 27.3438C21.875 28.6382 20.8257 29.6875 19.5312 29.6875C18.2368 29.6875 17.1875 28.6382 17.1875 27.3438ZM30.9509 33.9821C29.3411 35.2433 27.2278 35.9375 25 35.9375C22.7722 35.9375 20.6589 35.2433 19.0491 33.9821C18.7096 33.7159 18.6501 33.2253 18.9163 32.885C19.1826 32.5463 19.6732 32.4852 20.0134 32.7523C21.3486 33.799 23.1201 34.375 25 34.375C26.8799 34.375 28.6514 33.799 29.9866 32.7523C30.3268 32.4852 30.8174 32.5463 31.0837 32.885C31.3499 33.2253 31.2904 33.7159 30.9509 33.9821ZM30.4688 29.6875C29.1743 29.6875 28.125 28.6382 28.125 27.3438C28.125 26.0494 29.1743 25 30.4688 25C31.7632 25 32.8125 26.0494 32.8125 27.3438C32.8125 28.6382 31.7632 29.6875 30.4688 29.6875Z" fill="white"/>
</svg>
