<svg width="50" height="50" viewBox="0 0 50 50" fill="none" xmlns="http://www.w3.org/2000/svg">
<g clip-path="url(#clip0_125_464)">
<path d="M25 50C38.8071 50 50 38.8071 50 25C50 11.1929 38.8071 0 25 0C11.1929 0 0 11.1929 0 25C0 38.8071 11.1929 50 25 50Z" fill="url(#paint0_linear_125_464)"/>
<path d="M37.1678 14.3847L32.7049 36.8944C32.7049 36.8944 32.0799 38.4569 30.3612 37.705L20.0584 29.8046L16.3084 27.9979L9.99983 25.8788C9.99983 25.8788 9.03304 25.537 8.93538 24.7851C8.83772 24.0331 10.0291 23.6327 10.0291 23.6327L35.1073 13.7987C35.1073 13.789 37.1678 12.8808 37.1678 14.3847Z" fill="white"/>
<path d="M19.2578 36.6406C19.2578 36.6406 18.9551 36.6113 18.584 35.4297C18.2129 34.248 16.3086 27.998 16.3086 27.998L31.4551 18.3789C31.4551 18.3789 32.334 17.8516 32.2949 18.3789C32.2949 18.3789 32.4512 18.4766 31.9824 18.9063C31.5137 19.3457 20.0879 29.6191 20.0879 29.6191" fill="#D2E4F0"/>
<path d="M24.0039 32.832L19.9316 36.5527C19.9316 36.5527 19.6094 36.7969 19.2676 36.6406L20.0488 29.7363" fill="#B5CFE4"/>
</g>
<defs>
<linearGradient id="paint0_linear_125_464" x1="25" y1="0" x2="25" y2="49.8176" gradientUnits="userSpaceOnUse">
<stop stop-color="#41BCE7"/>
<stop offset="1" stop-color="#22A6DC"/>
</linearGradient>
<clipPath id="clip0_125_464">
<rect width="50" height="50" fill="white"/>
</clipPath>
</defs>
</svg>
