<svg width="50" height="50" viewBox="0 0 50 50" fill="none" xmlns="http://www.w3.org/2000/svg">
<g clip-path="url(#clip0_125_460)">
<path d="M25 50C38.8071 50 50 38.8071 50 25C50 11.1929 38.8071 0 25 0C11.1929 0 0 11.1929 0 25C0 38.8071 11.1929 50 25 50Z" fill="#4D76A1"/>
<path fill-rule="evenodd" clip-rule="evenodd" d="M24.0524 35.9668H26.0153C26.0153 35.9668 26.611 35.8985 26.9137 35.5762C27.197 35.2735 27.1872 34.7168 27.1872 34.7168C27.1872 34.7168 27.1481 32.0801 28.3688 31.6993C29.57 31.3184 31.1227 34.2383 32.7634 35.3711C34.0036 36.2208 34.9411 36.0352 34.9411 36.0352L39.3259 35.9766C39.3259 35.9766 41.6208 35.8399 40.527 34.0333C40.4391 33.8868 39.8923 32.6954 37.2653 30.2637C34.5212 27.7149 34.8825 28.1251 38.193 23.711C40.2145 21.0254 41.0153 19.3848 40.7614 18.6817C40.5173 18.0079 39.0427 18.1934 39.0427 18.1934L34.1012 18.2227C34.1012 18.2227 33.7399 18.1739 33.4665 18.3301C33.2028 18.4864 33.027 18.8575 33.027 18.8575C33.027 18.8575 32.2458 20.9376 31.2009 22.7051C29.0036 26.4356 28.1247 26.6309 27.7634 26.4063C26.9235 25.8594 27.1384 24.2383 27.1384 23.0762C27.1384 19.4629 27.6852 17.9493 26.0739 17.5586C25.5368 17.4317 25.1462 17.3438 23.7692 17.334C22.0114 17.3145 20.5173 17.334 19.6677 17.754C19.111 18.0274 18.6716 18.6426 18.9352 18.6719C19.2575 18.711 19.9997 18.877 20.3903 19.4043C20.8981 20.0879 20.8786 21.6407 20.8786 21.6407C20.8786 21.6407 21.1716 25.8985 20.195 26.4258C19.5309 26.7872 18.613 26.045 16.6598 22.6661C15.654 20.9278 14.902 19.0137 14.902 19.0137C14.902 19.0137 14.7555 18.6524 14.4919 18.4668C14.1696 18.2325 13.7302 18.1641 13.7302 18.1641L9.04265 18.1934C9.04265 18.1934 8.33953 18.2129 8.07586 18.5157C7.85125 18.7891 8.05633 19.3555 8.05633 19.3555C8.05633 19.3555 11.7282 27.9493 15.8884 32.2754C19.7262 36.2305 24.0524 35.9668 24.0524 35.9668Z" fill="white"/>
</g>
<defs>
<clipPath id="clip0_125_460">
<rect width="50" height="50" fill="white"/>
</clipPath>
</defs>
</svg>
