<svg width="239" height="59" viewBox="0 0 239 59" fill="none" xmlns="http://www.w3.org/2000/svg">
<g clip-path="url(#clip0_187_1570)">
<path d="M156.909 15.172V34.1047C156.909 39.0126 154.601 43.3625 151.049 46.047L150.307 46.5728C148.1 48.0312 145.481 48.8741 142.674 48.8741C142.431 48.8741 142.189 48.869 141.947 48.8554C142.419 47.3885 142.674 45.8164 142.674 44.1816V25.2488C142.674 21.1703 141.08 17.48 138.504 14.8073C136.088 12.3008 132.807 10.6898 129.166 10.4998C130.119 7.53036 131.958 4.97807 134.358 3.18553L134.973 2.75139L134.997 2.73443C137.214 1.25902 139.849 0.404297 142.674 0.404297C146.604 0.404297 150.165 2.05778 152.739 4.73047C155.316 7.40147 156.909 11.0934 156.909 15.172Z" fill="url(#paint0_linear_187_1570)"/>
<path d="M150.307 46.5725L136.782 56.1457C134.438 57.9077 131.555 58.949 128.439 58.949C120.577 58.949 114.203 52.3368 114.203 44.1813V25.2486C114.203 20.3017 116.549 15.9213 120.149 13.2435L120.684 12.8653L134.36 3.18359C131.96 4.97613 130.121 7.52842 129.168 10.4979C128.695 11.9682 128.44 13.5386 128.44 15.1717V34.1045C128.44 42.0072 134.424 48.46 141.948 48.8535C142.19 48.867 142.432 48.8721 142.676 48.8721C145.479 48.8738 148.098 48.031 150.307 46.5725Z" fill="url(#paint1_linear_187_1570)"/>
<path d="M48.7923 6.57529V27.4074H60.6263V31.9422H48.7923V57.3107H44.421V2.04053H61.5319V6.57529H48.7923Z" fill="#F4F4F4"/>
<path d="M21.9156 2.04053V57.3107H18.7197L17.5443 53.9733L9.77923 31.9422L8.18208 27.4074L4.37639 16.6149V57.3107H0.00671387V2.04053H3.38737L4.37639 4.85059L12.3278 27.4074L13.9249 31.9422L17.5443 42.209V2.04053H21.9156Z" fill="#F4F4F4"/>
<path d="M101.564 2.04053V6.57529H93.2083V57.3107H88.837V6.57529H80.2856V2.04053H101.564Z" fill="#F4F4F4"/>
<path d="M196.21 1.06885V56.3374H189.505L188.789 54.4092L186.799 49.0502L176.968 22.5657V56.3374H169.546V1.06885H176.307L176.968 2.83425L185.08 24.5397L187.803 31.8252L188.789 34.4623V1.06885H196.21Z" fill="#F4F4F4"/>
<path d="M224.982 9.32769V25.5131H237.118V32.7986H224.982V50.0219H238.993V57.3107H217.56V2.04053H238.993V9.32769H224.982Z" fill="#F4F4F4"/>
</g>
<defs>
<linearGradient id="paint0_linear_187_1570" x1="157.633" y1="49.0939" x2="132.097" y2="-4.94456" gradientUnits="userSpaceOnUse">
<stop stop-color="#27D6FF"/>
<stop offset="0.296" stop-color="#1BACDC"/>
<stop offset="0.8919" stop-color="#004D8C"/>
</linearGradient>
<linearGradient id="paint1_linear_187_1570" x1="118.926" y1="17.3721" x2="145.894" y2="57.2065" gradientUnits="userSpaceOnUse">
<stop stop-color="#27D6FF"/>
<stop offset="0.1988" stop-color="#1CAFDE"/>
<stop offset="0.448" stop-color="#1085BB"/>
<stop offset="0.6735" stop-color="#0766A1"/>
<stop offset="0.8651" stop-color="#025492"/>
<stop offset="1" stop-color="#004D8C"/>
</linearGradient>
<clipPath id="clip0_187_1570">
<rect width="239" height="59" fill="white"/>
</clipPath>
</defs>
</svg>
