<svg width="50" height="50" viewBox="0 0 50 50" fill="none" xmlns="http://www.w3.org/2000/svg">
<path d="M25 48.4375C37.9442 48.4375 48.4375 37.9442 48.4375 25C48.4375 12.0558 37.9442 1.5625 25 1.5625C12.0558 1.5625 1.5625 12.0558 1.5625 25C1.5625 37.9442 12.0558 48.4375 25 48.4375Z" fill="#FF4500"/>
<path d="M40.625 24.9998C40.625 23.2732 39.2266 21.8748 37.5 21.8748C36.3672 21.8748 35.375 22.4763 34.8281 23.3826C32.5642 21.6282 29.3658 20.491 25.787 20.3422L27.1942 11.9001L32.6233 13.2574C32.6876 13.2737 32.7505 13.2666 32.814 13.2664C32.8139 13.2714 32.8125 13.276 32.8125 13.2811C32.8125 14.5755 33.8618 15.6248 35.1562 15.6248C36.4507 15.6248 37.5 14.5755 37.5 13.2811C37.5 11.9866 36.4507 10.9373 35.1562 10.9373C34.3892 10.9373 33.7145 11.3111 33.2869 11.8808C33.2045 11.8176 33.1089 11.769 33.0017 11.7422L26.7517 10.1797C26.5396 10.1248 26.3168 10.1637 26.1345 10.2842C25.9521 10.4032 25.8278 10.594 25.7919 10.8091L24.2294 20.1841C24.2204 20.2381 24.2327 20.2887 24.2348 20.3413C20.6471 20.4864 17.4404 21.6247 15.1719 23.3826C14.625 22.4763 13.6328 21.8748 12.5 21.8748C10.7734 21.8748 9.375 23.2732 9.375 24.9998C9.375 26.531 10.4688 27.7966 11.9219 28.0701C11.7891 28.5935 11.7188 29.1326 11.7188 29.6873C11.7188 34.867 17.6641 39.0623 25 39.0623C32.3359 39.0623 38.2812 34.867 38.2812 29.6873C38.2812 29.1326 38.2109 28.5935 38.0781 28.0701C39.5312 27.7966 40.625 26.531 40.625 24.9998ZM17.1875 27.3436C17.1875 26.0491 18.2368 24.9998 19.5312 24.9998C20.8257 24.9998 21.875 26.0491 21.875 27.3436C21.875 28.638 20.8257 29.6873 19.5312 29.6873C18.2368 29.6873 17.1875 28.638 17.1875 27.3436ZM30.9509 33.9819C29.3411 35.243 27.2278 35.9373 25 35.9373C22.7722 35.9373 20.6589 35.243 19.0491 33.9819C18.7096 33.7156 18.6501 33.2251 18.9163 32.8848C19.1826 32.546 19.6732 32.485 20.0134 32.752C21.3486 33.7988 23.1201 34.3748 25 34.3748C26.8799 34.3748 28.6514 33.7988 29.9866 32.752C30.3268 32.485 30.8174 32.546 31.0837 32.8848C31.3499 33.2251 31.2904 33.7156 30.9509 33.9819ZM30.4688 29.6873C29.1743 29.6873 28.125 28.638 28.125 27.3436C28.125 26.0491 29.1743 24.9998 30.4688 24.9998C31.7632 24.9998 32.8125 26.0491 32.8125 27.3436C32.8125 28.638 31.7632 29.6873 30.4688 29.6873Z" fill="white"/>
</svg>
