<svg width="50" height="50" viewBox="0 0 50 50" fill="none" xmlns="http://www.w3.org/2000/svg">
<g clip-path="url(#clip0_306_293341)">
<path d="M25 0C38.805 0 50 11.195 50 25C50 38.805 38.805 50 25 50C11.195 50 0 38.805 0 25C0 11.195 11.195 0 25 0Z" fill="#1DA1F2"/>
<path d="M19.2 37.7001C30.99 37.7001 37.445 27.9301 37.445 19.4551C37.445 19.1801 37.445 18.9001 37.425 18.6251C38.68 17.7151 39.765 16.5951 40.625 15.3051C39.455 15.8251 38.215 16.1651 36.945 16.3151C38.285 15.5151 39.285 14.2551 39.765 12.7701C38.505 13.5151 37.13 14.0451 35.695 14.3251C33.265 11.7451 29.205 11.6201 26.625 14.0451C24.96 15.6101 24.255 17.9451 24.77 20.1701C19.615 19.9101 14.81 17.4751 11.555 13.4701C9.85501 16.4001 10.72 20.1451 13.54 22.0301C12.52 22.0001 11.52 21.7251 10.63 21.2301C10.63 21.2551 10.63 21.2851 10.63 21.3101C10.63 24.3601 12.78 26.9901 15.775 27.5951C14.83 27.8501 13.84 27.8901 12.88 27.7051C13.72 30.3151 16.125 32.1051 18.87 32.1601C16.6 33.9451 13.795 34.9151 10.91 34.9101C10.4 34.9101 9.89001 34.8801 9.38501 34.8151C12.305 36.7001 15.72 37.7001 19.2 37.6951" fill="white"/>
</g>
<defs>
<clipPath id="clip0_306_293341">
<rect width="50" height="50" fill="white"/>
</clipPath>
</defs>
</svg>
