<svg width="50" height="50" viewBox="0 0 50 50" fill="none" xmlns="http://www.w3.org/2000/svg">
<g clip-path="url(#clip0_306_293330)">
<path d="M25 50C38.8071 50 50 38.8071 50 25C50 11.1929 38.8071 0 25 0C11.1929 0 0 11.1929 0 25C0 38.8071 11.1929 50 25 50Z" fill="#4D76A1"/>
<path fill-rule="evenodd" clip-rule="evenodd" d="M24.0528 35.9668H26.0157C26.0157 35.9668 26.6114 35.8985 26.9141 35.5762C27.1973 35.2735 27.1876 34.7168 27.1876 34.7168C27.1876 34.7168 27.1485 32.0801 28.3692 31.6993C29.5704 31.3184 31.1231 34.2383 32.7637 35.3711C34.004 36.2208 34.9415 36.0352 34.9415 36.0352L39.3262 35.9766C39.3262 35.9766 41.6211 35.8399 40.5274 34.0333C40.4395 33.8868 39.8926 32.6954 37.2657 30.2637C34.5215 27.7149 34.8829 28.1251 38.1934 23.711C40.2149 21.0254 41.0157 19.3848 40.7618 18.6817C40.5176 18.0079 39.043 18.1934 39.043 18.1934L34.1016 18.2227C34.1016 18.2227 33.7403 18.1739 33.4668 18.3301C33.2032 18.4864 33.0274 18.8575 33.0274 18.8575C33.0274 18.8575 32.2461 20.9376 31.2012 22.7051C29.004 26.4356 28.1251 26.6309 27.7637 26.4063C26.9239 25.8594 27.1387 24.2383 27.1387 23.0762C27.1387 19.4629 27.6856 17.9493 26.0743 17.5586C25.5372 17.4317 25.1465 17.3438 23.7696 17.334C22.0118 17.3145 20.5176 17.334 19.668 17.754C19.1114 18.0274 18.6719 18.6426 18.9356 18.6719C19.2579 18.711 20.0001 18.877 20.3907 19.4043C20.8985 20.0879 20.879 21.6407 20.879 21.6407C20.879 21.6407 21.1719 25.8985 20.1954 26.4258C19.5313 26.7872 18.6133 26.045 16.6602 22.6661C15.6543 20.9278 14.9024 19.0137 14.9024 19.0137C14.9024 19.0137 14.7559 18.6524 14.4922 18.4668C14.17 18.2325 13.7305 18.1641 13.7305 18.1641L9.04302 18.1934C9.04302 18.1934 8.3399 18.2129 8.07622 18.5157C7.85161 18.7891 8.05669 19.3555 8.05669 19.3555C8.05669 19.3555 11.7286 27.9493 15.8887 32.2754C19.7266 36.2305 24.0528 35.9668 24.0528 35.9668Z" fill="white"/>
</g>
<defs>
<clipPath id="clip0_306_293330">
<rect width="50" height="50" fill="white"/>
</clipPath>
</defs>
</svg>
