<svg width="21" height="19" viewBox="0 0 21 19" fill="none" xmlns="http://www.w3.org/2000/svg">
<g clip-path="url(#clip0_432_294789)">
<path d="M14.6672 12.7991L15.8339 11.6116C16.0161 11.4261 16.3333 11.556 16.3333 11.8231V17.2188C16.3333 18.2022 15.5495 19.0001 14.5833 19.0001H1.75C0.783854 19.0001 0 18.2022 0 17.2188V4.15635C0 3.17295 0.783854 2.3751 1.75 2.3751H11.7214C11.9802 2.3751 12.1115 2.69424 11.9292 2.8835L10.7625 4.071C10.7078 4.12666 10.6349 4.15635 10.5547 4.15635H1.75V17.2188H14.5833V13.0069C14.5833 12.929 14.6125 12.8548 14.6672 12.7991ZM20.3766 5.31045L10.8026 15.0554L7.50677 15.4265C6.55156 15.5341 5.73854 14.714 5.84427 13.7343L6.20885 10.3796L15.7828 0.634668C16.6177 -0.215137 17.9667 -0.215137 18.7979 0.634668L20.3729 2.23779C21.2078 3.0876 21.2078 4.46436 20.3766 5.31045ZM16.7745 6.45713L14.6562 4.30107L7.88229 11.1997L7.61615 13.623L9.99687 13.3521L16.7745 6.45713ZM19.137 3.49951L17.562 1.89639C17.4125 1.74424 17.1682 1.74424 17.0224 1.89639L15.8958 3.04307L18.0141 5.19912L19.1406 4.05244C19.2865 3.89658 19.2865 3.65166 19.137 3.49951Z" fill="black"/>
</g>
<defs>
<clipPath id="clip0_432_294789">
<rect width="21" height="19" fill="white"/>
</clipPath>
</defs>
</svg>
