<svg width="34" height="34" viewBox="0 0 34 34" fill="none" xmlns="http://www.w3.org/2000/svg">
<path d="M18.0625 25.5C23.3437 25.5 27.625 21.2187 27.625 15.9375C27.625 10.6563 23.3437 6.375 18.0625 6.375C12.7813 6.375 8.5 10.6563 8.5 15.9375C8.5 21.2187 12.7813 25.5 18.0625 25.5Z" fill="white"/>
<path d="M19.125 0H17V4.25H19.125V0Z" fill="white"/>
<path d="M19.125 27.625H17V31.875H19.125V27.625Z" fill="white"/>
<path d="M34 14.875H29.75V17H34V14.875Z" fill="white"/>
<path d="M6.375 14.875H2.125V17H6.375V14.875Z" fill="white"/>
<path d="M27.0772 23.4505L25.5746 24.9531L28.5798 27.9583L30.0823 26.4557L27.0772 23.4505Z" fill="white"/>
<path d="M7.54482 3.91685L6.04224 5.41943L9.04741 8.42461L10.55 6.92202L7.54482 3.91685Z" fill="white"/>
<path d="M9.04668 23.4499L6.0415 26.4551L7.54409 27.9577L10.5493 24.9525L9.04668 23.4499Z" fill="white"/>
<path d="M28.5801 3.91719L25.575 6.92236L27.0775 8.42495L30.0827 5.41978L28.5801 3.91719Z" fill="white"/>
</svg>
