<svg width="24" height="24" viewBox="0 0 24 24" fill="none" xmlns="http://www.w3.org/2000/svg">
<g clip-path="url(#clip0_156_735)">
<path d="M11.3578 5.89419C12.0373 5.7892 12.7337 5.86942 13.3706 6.12679C14.0077 6.38422 14.5623 6.80967 14.9713 7.35877C15.3804 7.90808 15.6273 8.5592 15.6823 9.24038C15.7372 9.92155 15.5978 10.6034 15.2809 11.2099C14.9643 11.8163 14.4835 12.3225 13.8942 12.6748C13.7379 12.7681 13.5681 12.8557 13.4314 12.9263C13.3921 12.9466 13.3556 12.9654 13.3229 12.9826C13.1556 13.0705 13.0469 13.1348 12.9664 13.1981C12.8937 13.2551 12.8624 13.2975 12.8444 13.3328C12.8271 13.367 12.7991 13.44 12.7991 13.5909V14.6653C12.7991 14.9494 12.5688 15.1796 12.2848 15.1796H11.5991C11.315 15.1796 11.0848 14.9494 11.0848 14.6653V13.5909C11.0848 13.2122 11.1588 12.866 11.3161 12.5562C11.473 12.2475 11.6893 12.0212 11.9077 11.8497C12.1183 11.6844 12.3441 11.5603 12.5257 11.465C12.5816 11.4356 12.6329 11.4091 12.6807 11.3844C12.8055 11.32 12.9084 11.2668 13.0145 11.2033C13.3357 11.0113 13.5934 10.7382 13.7615 10.4163C13.9295 10.0946 14.0023 9.73555 13.9735 9.37821C13.9447 9.02078 13.815 8.67621 13.5964 8.38274C13.3777 8.08905 13.0779 7.85745 12.7284 7.71622C12.3787 7.57493 11.9947 7.5304 11.6196 7.58837C11.2444 7.64634 10.8952 7.80409 10.6099 8.04173C10.4604 8.16634 10.3316 8.31022 10.2265 8.46828C10.0692 8.70475 9.7828 8.85621 9.51331 8.76647L8.86274 8.54975C8.59325 8.46 8.44445 8.16655 8.57123 7.91238C8.79803 7.45778 9.11834 7.05322 9.51263 6.72468C10.0394 6.28576 10.6782 5.9992 11.3578 5.89419Z" fill="black"/>
<path d="M11.2383 17.0367C11.2383 16.8001 11.4302 16.6082 11.6669 16.6082H12.2219C12.4586 16.6082 12.6505 16.8001 12.6505 17.0367V17.5918C12.6505 17.8285 12.4586 18.0204 12.2219 18.0204H11.6669C11.4302 18.0204 11.2383 17.8285 11.2383 17.5918V17.0367Z" fill="black"/>
<path fill-rule="evenodd" clip-rule="evenodd" d="M12.0003 0.857178C5.84625 0.857178 0.857422 5.84601 0.857422 12C0.857422 18.1541 5.84625 23.1429 12.0003 23.1429C18.1543 23.1429 23.1431 18.1541 23.1431 12C23.1431 5.84601 18.1543 0.857178 12.0003 0.857178ZM2.57171 12C2.57171 6.79278 6.79303 2.57146 12.0003 2.57146C17.2075 2.57146 21.4289 6.79278 21.4289 12C21.4289 17.2073 17.2075 21.4286 12.0003 21.4286C6.79303 21.4286 2.57171 17.2073 2.57171 12Z" fill="black"/>
</g>
<defs>
<clipPath id="clip0_156_735">
<rect width="24" height="24" fill="white"/>
</clipPath>
</defs>
</svg>
