<svg width="24" height="24" viewBox="0 0 24 24" fill="none" xmlns="http://www.w3.org/2000/svg">
<g clip-path="url(#clip0_156_715)">
<path d="M18 21.75H6C5.00544 21.75 4.05161 21.3549 3.34835 20.6517C2.64509 19.9484 2.25 18.9946 2.25 18V7.5C2.25 7.30109 2.32902 7.11032 2.46967 6.96967C2.61032 6.82902 2.80109 6.75 3 6.75H18C18.9946 6.75 19.9484 7.14509 20.6516 7.84835C21.3549 8.55161 21.75 9.50544 21.75 10.5V18C21.75 18.9946 21.3549 19.9484 20.6516 20.6517C19.9484 21.3549 18.9946 21.75 18 21.75ZM3.75 8.25V18C3.75 18.5967 3.98705 19.169 4.40901 19.591C4.83097 20.0129 5.40326 20.25 6 20.25H18C18.5967 20.25 19.169 20.0129 19.591 19.591C20.0129 19.169 20.25 18.5967 20.25 18V10.5C20.25 9.90326 20.0129 9.33097 19.591 8.90901C19.169 8.48705 18.5967 8.25 18 8.25H3.75Z" fill="black"/>
<path d="M19.5001 8.24991C19.3012 8.24991 19.1104 8.1709 18.9698 8.03024C18.8291 7.88959 18.7501 7.69883 18.7501 7.49991V5.43741C18.7645 5.17468 18.7193 4.91209 18.618 4.66925C18.5167 4.4264 18.3619 4.20956 18.1651 4.03491C17.9882 3.90243 17.7835 3.81196 17.5665 3.77038C17.3495 3.7288 17.1259 3.73719 16.9126 3.79491L4.33508 6.65241C4.1659 6.69052 4.01514 6.78607 3.90848 6.92282C3.80182 7.05956 3.74585 7.22904 3.75008 7.40241C3.75008 7.60133 3.67107 7.79209 3.53041 7.93274C3.38976 8.0734 3.199 8.15241 3.00008 8.15241C2.80117 8.15241 2.61041 8.0734 2.46975 7.93274C2.3291 7.79209 2.25008 7.60133 2.25008 7.40241C2.24568 6.88971 2.41652 6.39087 2.73432 5.98851C3.05212 5.58616 3.4978 5.3044 3.99758 5.18991L16.5826 2.33241C17.0154 2.22297 17.4675 2.21406 17.9044 2.30636C18.3412 2.39866 18.751 2.58972 19.1026 2.86491C19.4743 3.18039 19.7704 3.57535 19.969 4.02061C20.1676 4.46587 20.2637 4.95006 20.2501 5.43741V7.49991C20.2501 7.69883 20.1711 7.88959 20.0304 8.03024C19.8898 8.1709 19.699 8.24991 19.5001 8.24991Z" fill="black"/>
<path d="M21 17.25H15.75C14.9544 17.25 14.1913 16.9339 13.6287 16.3713C13.0661 15.8087 12.75 15.0456 12.75 14.25C12.75 13.4544 13.0661 12.6913 13.6287 12.1287C14.1913 11.5661 14.9544 11.25 15.75 11.25H21C21.1989 11.25 21.3897 11.329 21.5303 11.4697C21.671 11.6103 21.75 11.8011 21.75 12V16.5C21.75 16.6989 21.671 16.8897 21.5303 17.0303C21.3897 17.171 21.1989 17.25 21 17.25ZM15.75 12.75C15.3522 12.75 14.9706 12.908 14.6893 13.1893C14.408 13.4706 14.25 13.8522 14.25 14.25C14.25 14.6478 14.408 15.0294 14.6893 15.3107C14.9706 15.592 15.3522 15.75 15.75 15.75H20.25V12.75H15.75Z" fill="black"/>
</g>
<defs>
<clipPath id="clip0_156_715">
<rect width="24" height="24" fill="white"/>
</clipPath>
</defs>
</svg>
