<svg width="239" height="69" viewBox="0 0 239 69" fill="none" xmlns="http://www.w3.org/2000/svg">
<g clip-path="url(#clip0_48_300)">
<path d="M156.91 25.172V44.1047C156.91 49.0126 154.601 53.3625 151.049 56.047L150.307 56.5728C148.1 58.0312 145.481 58.8741 142.674 58.8741C142.431 58.8741 142.189 58.869 141.947 58.8554C142.419 57.3885 142.674 55.8164 142.674 54.1816V35.2488C142.674 31.1703 141.08 27.48 138.504 24.8073C136.088 22.3008 132.807 20.6898 129.166 20.4998C130.119 17.5304 131.958 14.9781 134.358 13.1855L134.973 12.7514L134.997 12.7344C137.214 11.259 139.849 10.4043 142.674 10.4043C146.604 10.4043 150.165 12.0578 152.739 14.7305C155.316 17.4015 156.91 21.0934 156.91 25.172Z" fill="url(#paint0_linear_48_300)"/>
<path d="M150.307 56.5725L136.783 66.1457C134.438 67.9077 131.555 68.949 128.439 68.949C120.577 68.949 114.203 62.3368 114.203 54.1813V35.2486C114.203 30.3017 116.549 25.9213 120.149 23.2435L120.684 22.8653L134.36 13.1836C131.96 14.9761 130.121 17.5284 129.168 20.4979C128.695 21.9682 128.44 23.5386 128.44 25.1717V44.1045C128.44 52.0072 134.424 58.46 141.948 58.8535C142.19 58.867 142.432 58.8721 142.676 58.8721C145.479 58.8738 148.098 58.031 150.307 56.5725Z" fill="url(#paint1_linear_48_300)"/>
<path d="M48.7923 16.5753V37.4074H60.6262V41.9422H48.7923V67.3107H44.421V12.0405H61.5319V16.5753H48.7923Z" fill="#F4F4F4"/>
<path d="M21.9156 12.0405V67.3107H18.7196L17.5443 63.9733L9.77922 41.9422L8.18207 37.4074L4.37637 26.6149V67.3107H0.00669861V12.0405H3.38735L4.37637 14.8506L12.3278 37.4074L13.9249 41.9422L17.5443 52.209V12.0405H21.9156Z" fill="#F4F4F4"/>
<path d="M101.564 12.0405V16.5753H93.2084V67.3107H88.837V16.5753H80.2857V12.0405H101.564Z" fill="#F4F4F4"/>
<path d="M196.21 11.0688V66.3374H189.505L188.789 64.4092L186.799 59.0502L176.968 32.5657V66.3374H169.546V11.0688H176.307L176.968 12.8342L185.08 34.5397L187.803 41.8252L188.789 44.4623V11.0688H196.21Z" fill="#F4F4F4"/>
<path d="M224.982 19.3277V35.5131H237.118V42.7986H224.982V60.0219H238.993V67.3107H217.56V12.0405H238.993V19.3277H224.982Z" fill="#F4F4F4"/>
</g>
<defs>
<linearGradient id="paint0_linear_48_300" x1="157.633" y1="59.0939" x2="132.097" y2="5.05544" gradientUnits="userSpaceOnUse">
<stop stop-color="#27D6FF"/>
<stop offset="0.296" stop-color="#1BACDC"/>
<stop offset="0.8919" stop-color="#004D8C"/>
</linearGradient>
<linearGradient id="paint1_linear_48_300" x1="118.926" y1="27.3721" x2="145.895" y2="67.2065" gradientUnits="userSpaceOnUse">
<stop stop-color="#27D6FF"/>
<stop offset="0.1988" stop-color="#1CAFDE"/>
<stop offset="0.448" stop-color="#1085BB"/>
<stop offset="0.6735" stop-color="#0766A1"/>
<stop offset="0.8651" stop-color="#025492"/>
<stop offset="1" stop-color="#004D8C"/>
</linearGradient>
<clipPath id="clip0_48_300">
<rect width="239" height="69" fill="white"/>
</clipPath>
</defs>
</svg>
