<svg width="28" height="30" viewBox="0 0 28 30" fill="none" xmlns="http://www.w3.org/2000/svg">
<g clip-path="url(#clip0_41_280)">
<path d="M25.2587 22.4902C25.026 22.5029 24.8062 22.5029 24.5736 22.5029C20.8121 22.5029 17.2703 21.0684 14.6075 18.4531C11.9447 15.8379 10.4841 12.3594 10.4841 8.66504C10.4841 6.55762 10.9624 4.52637 11.8543 2.68555C12.255 1.87305 12.7332 1.09863 13.2891 0.375C12.3067 0.476562 11.3631 0.679686 10.4453 0.958983C4.39588 2.83789 0.013916 8.38574 0.013916 14.9492C0.013916 23.0488 6.69673 29.6123 14.9436 29.6123C19.5065 29.6123 23.5783 27.6064 26.3186 24.4453C26.9391 23.7217 27.5078 22.9346 27.9732 22.0967C27.0942 22.3125 26.1893 22.4521 25.2587 22.4902Z" fill="white"/>
</g>
<defs>
<clipPath id="clip0_41_280">
<rect width="28" height="30" fill="white"/>
</clipPath>
</defs>
</svg>
