<svg width="24" height="24" viewBox="0 0 24 24" fill="none" xmlns="http://www.w3.org/2000/svg">
<path fill-rule="evenodd" clip-rule="evenodd" d="M5.03191 4.00008L18.0692 4C18.5304 4 18.9913 4.06061 19.473 4.26153C20.0504 4.50234 20.3565 4.8819 20.5711 5.1626C20.5877 5.18444 20.6033 5.20694 20.6178 5.22997C20.87 5.63166 21 6.06537 21 6.53191C21 6.9752 20.8821 7.45816 20.6178 7.87909C20.6153 7.88318 20.6127 7.88711 20.6102 7.89113L12.3734 20.5507C12.1918 20.8299 11.8575 21.0011 11.4964 21C11.1354 20.9989 10.8024 20.8254 10.623 20.5451L2.53751 7.91259C2.53519 7.90917 2.53286 7.90576 2.53054 7.90227C2.34549 7.62944 2.05933 7.20754 2.00928 6.66309C1.96328 6.16238 2.08905 5.66071 2.37023 5.22573C2.65141 4.79069 3.07471 4.44292 3.58385 4.23004C4.12977 4.00178 4.68299 4.00008 5.03191 4.00008ZM10.4893 5.80852H5.03191C4.67336 5.80852 4.53572 5.82828 4.4395 5.86854C4.30643 5.9241 4.19469 6.01553 4.11997 6.13111C4.04526 6.24676 4.01147 6.38076 4.02376 6.5149C4.03081 6.59178 4.06585 6.67973 4.27248 6.98464C4.27679 6.99102 4.28103 6.99749 4.28518 7.00395L10.4893 16.6971V5.80852ZM12.5106 5.80852V16.7451L18.8585 6.98857C18.9301 6.87211 18.9787 6.70379 18.9787 6.53191C18.9787 6.39249 18.9464 6.27142 18.8742 6.14663C18.7984 6.04911 18.7522 5.99748 18.7136 5.96213C18.6805 5.9319 18.655 5.9157 18.619 5.9007C18.4689 5.83808 18.3153 5.80852 18.0692 5.80852H12.5106Z" fill="black"/>
</svg>
