<svg width="27" height="27" viewBox="0 0 27 27" fill="none" xmlns="http://www.w3.org/2000/svg">
<path d="M15.4983 23.7305H12.3147C12.1193 23.7305 11.9308 23.6582 11.7856 23.5276C11.6403 23.3969 11.5485 23.2171 11.5279 23.0228L11.2922 20.8032C10.9631 20.6912 10.6417 20.558 10.3298 20.4045L8.59537 21.8072C8.44357 21.9295 8.25197 21.9914 8.05733 21.9811C7.86269 21.9708 7.67871 21.889 7.54068 21.7513L5.28945 19.5001C5.15183 19.3621 5.07001 19.1781 5.0597 18.9835C5.04938 18.7888 5.11129 18.5972 5.23355 18.4454L6.63682 16.7089C6.48304 16.3971 6.34969 16.0756 6.23762 15.7465L4.01434 15.5092C3.82012 15.4886 3.64038 15.3969 3.50972 15.2517C3.37906 15.1066 3.30673 14.9182 3.30664 14.7229V11.5388C3.30673 11.3435 3.37906 11.1551 3.50972 11.01C3.64038 10.8648 3.82012 10.7731 4.01434 10.7525L6.23393 10.5168C6.346 10.1877 6.47935 9.86623 6.63312 9.55441L5.22986 7.81787C5.1076 7.66607 5.04569 7.47447 5.05601 7.27983C5.06632 7.08519 5.14814 6.90121 5.28576 6.76319L7.53699 4.51195C7.67502 4.37433 7.859 4.29251 8.05364 4.2822C8.24828 4.27188 8.43988 4.33379 8.59168 4.45606L10.3282 5.85879C10.6401 5.70528 10.9616 5.57211 11.2906 5.46012L11.5263 3.24053C11.5466 3.04566 11.6384 2.86524 11.7841 2.73421C11.9297 2.60318 12.1188 2.53086 12.3147 2.53125H15.4983C15.6937 2.53121 15.8822 2.60348 16.0275 2.73415C16.1727 2.86482 16.2645 3.04464 16.2851 3.23895L16.5203 5.45854C16.8495 5.57052 17.1712 5.70369 17.4832 5.85721L19.2192 4.45447C19.371 4.33221 19.5626 4.2703 19.7573 4.28062C19.9519 4.29093 20.1359 4.37275 20.2739 4.51037L22.5252 6.7616C22.6628 6.89963 22.7446 7.08361 22.7549 7.27825C22.7652 7.47289 22.7033 7.66449 22.5811 7.81629L21.1778 9.55283C21.3313 9.86475 21.4647 10.1862 21.577 10.5152L23.7966 10.751C23.9907 10.7717 24.1703 10.8634 24.3009 11.0086C24.4314 11.1537 24.5037 11.342 24.5037 11.5372V14.7213C24.5041 14.9165 24.4323 15.1049 24.3022 15.2504C24.172 15.3958 23.9927 15.488 23.7987 15.5092L21.5791 15.7449C21.4668 16.0739 21.3335 16.3954 21.1799 16.7073L22.5832 18.4438C22.7054 18.5956 22.7673 18.7872 22.757 18.9819C22.7467 19.1765 22.6649 19.3605 22.5273 19.4985L20.276 21.7513C20.138 21.889 19.954 21.9708 19.7594 21.9811C19.5647 21.9914 19.3731 21.9295 19.2213 21.8072L17.4853 20.4045C17.1733 20.558 16.8516 20.6912 16.5224 20.8032L16.2872 23.0228C16.2666 23.2174 16.1745 23.3976 16.0288 23.5283C15.8831 23.659 15.6941 23.731 15.4983 23.7305ZM13.0251 22.1484H14.7859L15.0015 20.115C15.0185 19.9558 15.0833 19.8056 15.1874 19.684C15.2915 19.5624 15.4301 19.4753 15.5848 19.4342C16.142 19.2856 16.6768 19.0634 17.1753 18.7734C17.314 18.6926 17.4741 18.6559 17.6343 18.6682C17.7944 18.6806 17.947 18.7414 18.0717 18.8425L19.6622 20.1277L20.9073 18.8826L19.62 17.2969C19.5189 17.1721 19.4581 17.0195 19.4457 16.8594C19.4334 16.6993 19.4701 16.5392 19.5509 16.4004C19.8403 15.9023 20.0618 15.3678 20.2096 14.811C20.2508 14.6562 20.3379 14.5176 20.4596 14.4135C20.5813 14.3093 20.7317 14.2446 20.8909 14.2277L22.9238 14.0115V12.2507L20.8909 12.0345C20.7317 12.0177 20.5813 11.9529 20.4596 11.8488C20.3379 11.7446 20.2508 11.606 20.2096 11.4513C20.0619 10.8943 19.8403 10.3596 19.5509 9.86133C19.4701 9.72256 19.4334 9.56246 19.4457 9.40232C19.4581 9.24218 19.5189 9.08959 19.62 8.96484L20.9052 7.37438L19.6601 6.12932L18.0696 7.41445C17.9449 7.51562 17.7923 7.57642 17.6322 7.58876C17.472 7.6011 17.3119 7.5644 17.1731 7.48354C16.6749 7.19438 16.1404 6.97288 15.5837 6.82488C15.429 6.78374 15.2905 6.69664 15.1864 6.57508C15.0822 6.45353 15.0174 6.30325 15.0005 6.14408L14.7869 4.11328H13.0251L12.8094 6.14672C12.7924 6.30595 12.7275 6.45628 12.6233 6.57784C12.5191 6.6994 12.3804 6.78647 12.2256 6.82752C11.6693 6.97619 11.1353 7.19841 10.6378 7.48828C10.499 7.56914 10.3389 7.60584 10.1788 7.5935C10.0186 7.58116 9.86603 7.52037 9.74129 7.4192L8.1524 6.13195L6.90787 7.37701L8.19354 8.96748C8.29462 9.09228 8.35532 9.2449 8.36757 9.40504C8.37981 9.56517 8.34302 9.72524 8.26209 9.86397C7.97317 10.3623 7.75168 10.8968 7.60344 11.4534C7.56229 11.6081 7.47519 11.7466 7.35364 11.8508C7.23208 11.9549 7.0818 12.0197 6.92264 12.0366L4.8892 12.2528V14.0131L6.92264 14.2293C7.0818 14.2462 7.23208 14.311 7.35364 14.4152C7.47519 14.5193 7.56229 14.6579 7.60344 14.8126C7.75165 15.3686 7.97295 15.9025 8.26156 16.4004C8.3425 16.5391 8.37929 16.6992 8.36704 16.8593C8.35479 17.0195 8.29409 17.1721 8.19301 17.2969L6.90787 18.8847L8.15293 20.1298L9.74393 18.8446C9.86867 18.7435 10.0213 18.6827 10.1814 18.6703C10.3415 18.658 10.5016 18.6947 10.6404 18.7755C11.1384 19.0648 11.6727 19.2863 12.2293 19.4342C12.3841 19.4753 12.5227 19.5623 12.627 19.6839C12.7312 19.8054 12.7961 19.9558 12.8131 20.115L13.0251 22.1484Z" fill="black"/>
<path d="M13.9071 17.9486C12.9543 17.9485 12.0229 17.6659 11.2306 17.1364C10.4384 16.607 9.821 15.8545 9.45643 14.9741C9.09186 14.0938 8.99653 13.1251 9.18248 12.1906C9.36844 11.256 9.82733 10.3976 10.5011 9.72391C11.1749 9.05018 12.0334 8.59138 12.9679 8.40552C13.9025 8.21967 14.8712 8.31511 15.7515 8.67977C16.6318 9.04444 17.3842 9.66195 17.9136 10.4542C18.4429 11.2465 18.7255 12.178 18.7255 13.1308C18.7241 14.4082 18.216 15.6329 17.3126 16.5362C16.4093 17.4394 15.1846 17.9474 13.9071 17.9486ZM13.9071 9.89502C13.2672 9.89513 12.6416 10.085 12.1096 10.4406C11.5775 10.7962 11.1629 11.3016 10.918 11.8929C10.6732 12.4842 10.6092 13.1347 10.7341 13.7624C10.859 14.39 11.1672 14.9666 11.6198 15.419C12.0724 15.8715 12.6489 16.1796 13.2766 16.3044C13.9042 16.4293 14.5548 16.3651 15.1461 16.1202C15.7373 15.8753 16.2426 15.4606 16.5981 14.9285C16.9537 14.3963 17.1434 13.7708 17.1434 13.1308C17.1425 12.2728 16.8012 11.4503 16.1944 10.8437C15.5877 10.237 14.7651 9.89586 13.9071 9.89502Z" fill="black"/>
</svg>
