<svg width="25" height="24" viewBox="0 0 25 24" fill="none" xmlns="http://www.w3.org/2000/svg">
<path d="M11.0784 22.9809C8.51685 22.979 6.06079 21.9606 4.24952 20.1493C2.43826 18.3381 1.41986 15.882 1.41797 13.3205C1.41852 7.99401 5.75024 3.66064 11.0784 3.66064C11.2969 3.66064 11.5065 3.74745 11.661 3.90197C11.8155 4.05649 11.9023 4.26606 11.9023 4.48458V12.4966H19.9148C20.1334 12.4966 20.3429 12.5834 20.4974 12.7379C20.652 12.8924 20.7388 13.102 20.7388 13.3205C20.7388 18.647 16.4065 22.9809 11.0784 22.9809ZM10.2544 5.34862C6.22208 5.76224 3.06639 9.17883 3.06584 13.3188C3.0673 15.4436 3.91189 17.4809 5.41417 18.9835C6.91644 20.4861 8.95361 21.3311 11.0784 21.333C15.2184 21.333 18.635 18.1773 19.0486 14.1444H11.0784C10.8598 14.1444 10.6503 14.0576 10.4958 13.9031C10.3412 13.7486 10.2544 13.539 10.2544 13.3205V5.34862Z" fill="black"/>
<path d="M22.6747 11.6051H13.6169C13.3984 11.6051 13.1888 11.5183 13.0343 11.3638C12.8798 11.2093 12.793 10.9997 12.793 10.7812V1.72335C12.793 1.50483 12.8798 1.29526 13.0343 1.14074C13.1888 0.986222 13.3984 0.899414 13.6169 0.899414C19.0659 0.899414 23.4987 5.33275 23.4987 10.7812C23.4987 10.9997 23.4119 11.2093 23.2573 11.3638C23.1028 11.5183 22.8933 11.6051 22.6747 11.6051ZM14.4408 9.95724H21.8101C21.6175 8.06849 20.7792 6.30402 19.4367 4.9616C18.0941 3.61917 16.3296 2.78099 14.4408 2.58849V9.95724Z" fill="black"/>
</svg>
